<svg width="24" height="24" viewBox="0 0 24 24" fill="none" xmlns="http://www.w3.org/2000/svg">
<circle cx="13" cy="7" r="2.5" stroke="white"/>
<path d="M12.5 1C12.5 0.723858 12.2761 0.5 12 0.5C11.7239 0.5 11.5 0.723858 11.5 1H12.5ZM11.5 1V5H12.5V1H11.5Z" fill="white"/>
<path d="M3.98855 4.06449L9.90886 5.04183" stroke="white" stroke-linecap="round"/>
<path d="M14.9908 6.05199L19.924 6.86824" stroke="white" stroke-linecap="round"/>
<path d="M9.48177 15.9063C9.49448 15.9515 9.4993 15.9916 9.49838 16.0273C9.43354 18.5174 7.43571 20.5 5 20.5C2.56429 20.5 0.566464 18.5174 0.501623 16.0273C0.500686 15.9913 0.505481 15.9519 0.517957 15.9078C1.31022 13.1123 2.76367 8.9671 4.59742 4.33927C4.75863 3.93245 5.30709 3.93329 5.47223 4.32296C7.54643 9.21753 8.6869 13.0758 9.48177 15.9063Z" stroke="white"/>
<path d="M23.4798 18.175C23.494 18.2228 23.4991 18.2644 23.498 18.3006C23.4273 20.6158 21.4559 22.5 19 22.5C16.5441 22.5 14.5727 20.6158 14.502 18.3006C14.5009 18.2641 14.506 18.2231 14.5199 18.1767C15.3134 15.5274 16.767 11.6013 18.6006 7.21857C18.7656 6.82401 19.299 6.82417 19.4681 7.20195C21.5429 11.8375 22.6844 15.4922 23.4798 18.175Z" stroke="white"/>
</svg>
