<svg width="24" height="24" viewBox="0 0 24 24" fill="none" xmlns="http://www.w3.org/2000/svg">
<g clip-path="url(#clip0_4038_4783)">
<path d="M14.4763 15.2565H3.82945C3.30792 15.2564 2.80288 15.0867 2.40185 14.7768C2.00082 14.467 1.72907 14.0365 1.6337 13.56L0.357109 6.94014C0.299246 6.64139 0.312583 6.33448 0.396179 6.04104C0.479774 5.74759 0.631596 5.47476 0.840946 5.24175C1.0503 5.00874 1.31208 4.82122 1.60786 4.69242C1.90364 4.56361 2.22621 4.49665 2.55285 4.49625H17.3231C17.4623 4.49652 17.5997 4.52538 17.7255 4.58075C17.8512 4.63613 17.9623 4.71665 18.0507 4.81656C18.1439 4.91384 18.2118 5.02961 18.2494 5.15504C18.2871 5.28046 18.2933 5.41222 18.2677 5.54024L16.672 13.56C16.5766 14.0365 16.3049 14.467 15.9039 14.7768C15.5028 15.0867 14.9978 15.2564 14.4763 15.2565ZM2.55285 6.27578C2.5062 6.27438 2.45986 6.28334 2.41768 6.30191C2.3755 6.32047 2.33869 6.34812 2.3103 6.38255C2.27962 6.41425 2.25776 6.45245 2.24663 6.49381C2.2355 6.53517 2.23545 6.57844 2.24647 6.61983L3.52307 13.2397C3.54015 13.3067 3.58085 13.3664 3.63868 13.4094C3.69651 13.4524 3.76816 13.4762 3.84222 13.477H14.5146C14.5877 13.4779 14.6588 13.4545 14.715 13.411C14.7712 13.3675 14.8088 13.3067 14.8209 13.2397L16.2124 6.27578H2.55285Z" fill="white"/>
<path d="M17.3231 6.2758H17.1444C16.896 6.23254 16.676 6.09975 16.5326 5.9064C16.3891 5.71306 16.3337 5.47483 16.3784 5.24367L17.0805 1.6846C17.1762 1.20925 17.4485 0.780217 17.8498 0.472339C18.2511 0.16446 18.7559 -0.00271759 19.2763 -2.91076e-05H23.1061C23.36 -2.91076e-05 23.6035 0.093714 23.7831 0.260578C23.9627 0.427442 24.0635 0.653758 24.0635 0.889739C24.0635 1.12572 23.9627 1.35204 23.7831 1.5189C23.6035 1.68576 23.36 1.77951 23.1061 1.77951H19.2763C19.2028 1.78225 19.1322 1.80675 19.0748 1.84944C19.0174 1.89213 18.9762 1.95076 18.9571 2.01678L18.2678 5.57585C18.2187 5.7746 18.0986 5.95203 17.927 6.07915C17.7554 6.20628 17.5425 6.2756 17.3231 6.2758Z" fill="white"/>
<path d="M3.22983 24C2.58996 24.0023 1.96376 23.828 1.43067 23.4991C0.897585 23.1702 0.481638 22.7015 0.235603 22.1526C-0.010433 21.6036 -0.075469 20.9992 0.0487458 20.4158C0.172961 19.8325 0.480828 19.2966 0.933289 18.8761C1.38575 18.4556 1.96241 18.1695 2.59012 18.0541C3.21782 17.9387 3.86828 17.9991 4.45896 18.2278C5.04965 18.4564 5.55394 18.8429 5.90786 19.3384C6.26178 19.8338 6.44938 20.4157 6.44686 21.0103C6.44686 21.8032 6.10792 22.5637 5.50461 23.1243C4.9013 23.685 4.08304 24 3.22983 24ZM3.22983 19.7884C2.97735 19.7884 2.73053 19.858 2.5206 19.9883C2.31066 20.1187 2.14704 20.304 2.05041 20.5207C1.95379 20.7375 1.92851 20.9761 1.97777 21.2062C2.02703 21.4363 2.14861 21.6477 2.32714 21.8136C2.50568 21.9795 2.73315 22.0925 2.98078 22.1383C3.22842 22.1841 3.4851 22.1606 3.71837 22.0708C3.95163 21.981 4.15101 21.8289 4.29128 21.6338C4.43156 21.4388 4.50643 21.2094 4.50643 20.9747C4.50643 20.6601 4.37193 20.3583 4.13252 20.1359C3.89312 19.9134 3.56841 19.7884 3.22983 19.7884Z" fill="white"/>
<path d="M15.0511 24C14.4117 24 13.7868 23.8236 13.2554 23.4933C12.7239 23.163 12.31 22.6935 12.0659 22.1444C11.8218 21.5952 11.7586 20.9911 11.8843 20.4086C12.01 19.826 12.3188 19.2912 12.7718 18.8719C13.2248 18.4526 13.8015 18.1677 14.4288 18.0532C15.0562 17.9388 15.706 17.9999 16.2959 18.2289C16.8858 18.4579 17.3894 18.8445 17.7427 19.3396C18.0961 19.8348 18.2834 20.4162 18.2808 21.0104C18.2775 21.8043 17.9357 22.5647 17.3304 23.1251C16.725 23.6854 15.9054 24 15.0511 24ZM15.0511 19.7884C14.7986 19.7884 14.5517 19.858 14.3418 19.9883C14.1319 20.1187 13.9683 20.304 13.8716 20.5208C13.775 20.7375 13.7497 20.9761 13.799 21.2062C13.8482 21.4363 13.9698 21.6477 14.1484 21.8136C14.3269 21.9796 14.5544 22.0926 14.802 22.1383C15.0496 22.1841 15.3063 22.1606 15.5396 22.0708C15.7729 21.981 15.9722 21.829 16.1125 21.6339C16.2528 21.4388 16.3276 21.2094 16.3276 20.9748C16.3276 20.6601 16.1931 20.3584 15.9537 20.1359C15.7143 19.9134 15.3896 19.7884 15.0511 19.7884Z" fill="white"/>
</g>
<defs>
<clipPath id="clip0_4038_4783">
<rect width="24" height="24" fill="white"/>
</clipPath>
</defs>
</svg>
