<svg width="18" height="18" viewBox="0 0 18 18" fill="none" xmlns="http://www.w3.org/2000/svg">
<path d="M10.2446 11H2.53876C2.16129 10.9999 1.79576 10.8737 1.5055 10.6434C1.21524 10.413 1.01856 10.093 0.949539 9.7387L0.025572 4.81698C-0.0163074 4.59486 -0.00665486 4.36668 0.0538497 4.14852C0.114354 3.93035 0.224239 3.7275 0.375761 3.55426C0.527283 3.38102 0.716758 3.24161 0.930834 3.14585C1.14491 3.05009 1.37838 3.0003 1.61479 3H12.3051C12.4058 3.00021 12.5053 3.02166 12.5963 3.06283C12.6874 3.104 12.7678 3.16387 12.8318 3.23815C12.8992 3.31047 12.9484 3.39655 12.9756 3.4898C13.0028 3.58305 13.0073 3.68101 12.9888 3.77619L11.8339 9.7387C11.7648 10.093 11.5682 10.413 11.2779 10.6434C10.9877 10.8737 10.6221 10.9999 10.2446 11ZM1.61479 4.32304C1.58103 4.322 1.54749 4.32866 1.51696 4.34247C1.48643 4.35627 1.45979 4.37683 1.43924 4.40243C1.41703 4.42599 1.40121 4.45439 1.39316 4.48514C1.3851 4.5159 1.38506 4.54806 1.39304 4.57883L2.31701 9.50055C2.32938 9.55034 2.35883 9.59475 2.40069 9.62672C2.44255 9.65869 2.4944 9.67637 2.548 9.67696H10.2724C10.3253 9.67766 10.3768 9.66027 10.4174 9.62791C10.4581 9.59556 10.4853 9.55038 10.4941 9.50055L11.5012 4.32304H1.61479Z" fill="white"/>
<path d="M12.7479 5H12.6086C12.4151 4.96553 12.2437 4.85974 12.1319 4.7057C12.0201 4.55166 11.9769 4.36186 12.0118 4.1777L12.5589 1.34217C12.6335 0.963465 12.8456 0.621651 13.1583 0.376363C13.4709 0.131074 13.8643 -0.00211649 14.2698 2.54368e-05H17.254C17.4518 2.54368e-05 17.6416 0.0747109 17.7815 0.207652C17.9214 0.340593 18 0.5209 18 0.708907C18 0.896914 17.9214 1.07722 17.7815 1.21016C17.6416 1.3431 17.4518 1.41779 17.254 1.41779H14.2698C14.2126 1.41997 14.1575 1.43949 14.1128 1.4735C14.0681 1.50751 14.0359 1.55423 14.0211 1.60682L13.484 4.44235C13.4457 4.6007 13.3521 4.74205 13.2184 4.84333C13.0847 4.94461 12.9189 4.99984 12.7479 5Z" fill="white"/>
<path d="M2.50986 18C2.01457 18.0019 1.52986 17.8567 1.11723 17.5828C0.704598 17.3088 0.382636 16.9185 0.192194 16.4613C0.00175112 16.004 -0.0485896 15.5006 0.0475581 15.0147C0.143706 14.5288 0.382009 14.0825 0.732234 13.7322C1.08246 13.382 1.52882 13.1437 2.01469 13.0476C2.50056 12.9514 3.00405 13.0018 3.46126 13.1922C3.91848 13.3826 4.30882 13.7046 4.58277 14.1172C4.85672 14.5299 5.00193 15.0146 4.99998 15.5099C4.99998 16.1703 4.73763 16.8037 4.27064 17.2706C3.80365 17.7376 3.17028 18 2.50986 18ZM2.50986 14.4921C2.31443 14.4921 2.12338 14.55 1.96088 14.6586C1.79838 14.7672 1.67173 14.9215 1.59694 15.1021C1.52215 15.2826 1.50258 15.4813 1.54071 15.673C1.57884 15.8647 1.67295 16.0407 1.81114 16.1789C1.94933 16.3171 2.1254 16.4112 2.31709 16.4494C2.50877 16.4875 2.70745 16.4679 2.88801 16.3931C3.06857 16.3184 3.22289 16.1917 3.33147 16.0292C3.44005 15.8667 3.498 15.6757 3.498 15.4802C3.498 15.2181 3.3939 14.9668 3.20858 14.7815C3.02327 14.5962 2.77193 14.4921 2.50986 14.4921Z" fill="white"/>
<path d="M11.5 18C11.0051 18 10.5214 17.8531 10.11 17.578C9.6987 17.3028 9.37828 16.9118 9.18935 16.4544C9.00043 15.997 8.9515 15.4938 9.04877 15.0086C9.14603 14.5234 9.38512 14.078 9.73574 13.7287C10.0864 13.3795 10.5327 13.1422 11.0183 13.0468C11.5039 12.9515 12.0069 13.0024 12.4636 13.1932C12.9202 13.3839 13.31 13.7059 13.5835 14.1183C13.857 14.5307 14.0019 15.015 14 15.5099C13.9974 16.1712 13.7328 16.8046 13.2643 17.2713C12.7957 17.738 12.1613 18 11.5 18ZM11.5 14.4921C11.3045 14.4921 11.1135 14.55 10.951 14.6586C10.7885 14.7672 10.6618 14.9215 10.5871 15.1021C10.5123 15.2827 10.4927 15.4813 10.5308 15.673C10.569 15.8647 10.6631 16.0408 10.8013 16.179C10.9395 16.3172 11.1155 16.4113 11.3072 16.4494C11.4989 16.4875 11.6976 16.468 11.8781 16.3932C12.0587 16.3184 12.213 16.1917 12.3216 16.0292C12.4302 15.8667 12.4881 15.6757 12.4881 15.4802C12.4881 15.2182 12.384 14.9668 12.1987 14.7815C12.0134 14.5962 11.7621 14.4921 11.5 14.4921Z" fill="white"/>
<path d="M7.92472 6.26068C8.51998 5.65296 9.06295 5.12085 9.13137 5.07823C9.39989 4.91081 9.81276 5.02446 9.9431 5.30162C10.0031 5.42909 10.0178 5.65134 9.9768 5.80902C9.96161 5.86745 9.32004 6.55283 8.45627 7.4335C7.13675 8.77872 6.9442 8.96021 6.8099 8.9852C6.51353 9.04039 6.40403 8.96907 5.73498 8.2851C5.39254 7.93504 5.08661 7.60856 5.05509 7.5596C4.97964 7.44227 4.98213 7.14292 5.05988 6.9892C5.17824 6.75519 5.44202 6.62682 5.70211 6.67671C5.81324 6.69802 5.93805 6.79614 6.25549 7.11195L6.66539 7.51966L6.7539 7.44264C6.80258 7.40026 7.32942 6.86839 7.92472 6.26068Z" fill="white"/>
</svg>
