<svg width="11" height="11" viewBox="0 0 11 11" fill="none" xmlns="http://www.w3.org/2000/svg">
<path d="M10.8473 10.4785L10.4784 10.8473C10.2748 11.0509 9.94459 11.0509 9.74088 10.8473L5.50001 6.60632L1.25905 10.8472C1.05542 11.0509 0.725201 11.0509 0.521532 10.8472L0.152752 10.4784C-0.0509173 10.2748 -0.0509173 9.94459 0.152752 9.74088L4.39369 5.50001L0.152752 1.25905C-0.0509173 1.05542 -0.0509173 0.725201 0.152752 0.521532L0.521523 0.15276C0.725193 -0.0509099 1.05542 -0.0509099 1.25905 0.15276L5.50001 4.39369L9.74088 0.152752C9.94459 -0.0509173 10.2748 -0.0509173 10.4784 0.152752L10.8473 0.521523C11.0509 0.725193 11.0509 1.05542 10.8473 1.25905L6.60632 5.50001L10.8473 9.74088C11.0509 9.94459 11.0509 10.2748 10.8473 10.4785Z" fill="white"/>
</svg>
