<svg width="32" height="29" viewBox="0 0 32 29" fill="none" xmlns="http://www.w3.org/2000/svg">
<path fill-rule="evenodd" clip-rule="evenodd" d="M24.6197 0.0894485C23.7234 0.229322 23.1995 0.584998 23.1995 1.0538C23.1995 1.30508 24.9222 4.23764 25.1375 4.35285C25.2097 4.3915 25.3418 4.42309 25.4311 4.42309C25.7706 4.42309 25.8852 4.24879 26.2113 3.23608C26.5195 2.27893 26.5249 2.24623 26.5249 1.32905C26.5249 0.815764 26.4943 0.338782 26.4571 0.269088C26.3064 -0.0122522 25.6704 -0.0744644 24.6197 0.0894485ZM25.3443 2.21664L25.2657 2.50851L25.0759 2.20147C24.9714 2.03257 24.8007 1.74811 24.6966 1.56931L24.5073 1.24418L24.7367 1.20656C25.3981 1.09814 25.3796 1.08914 25.4024 1.52857C25.4137 1.74645 25.3875 2.05613 25.3443 2.21664ZM17.1979 1.33805C16.4293 1.50813 15.8644 1.84012 14.5171 2.91366C14.1294 3.22257 13.407 3.74084 12.9117 4.06541C11.9413 4.70118 11.1198 5.45209 10.8806 5.92187L10.7348 6.20819L9.57168 6.24138C8.62318 6.26847 8.33471 6.30137 8.00848 6.41956C7.31985 6.66896 6.81661 6.97843 5.86209 7.73932C5.35386 8.14439 4.5343 8.73901 4.04076 9.0606C2.89808 9.8052 2.20356 10.4861 1.8456 11.2126C1.70476 11.4984 1.43395 12.2778 1.24378 12.9446C1.05354 13.6112 0.740402 14.5693 0.547808 15.0735C0.0591172 16.3528 -0.0288665 16.7731 0.00715829 17.6553C0.0329299 18.2863 0.0743585 18.4883 0.319743 19.1794C0.999018 21.0925 1.10398 21.4096 1.34042 22.2623C1.83847 24.0588 2.2761 24.6375 4.03168 25.8214C4.64812 26.2371 5.52062 26.8739 5.97065 27.2364C6.80622 27.9097 7.41947 28.2758 8.09681 28.5057C8.44625 28.6243 8.73347 28.635 11.5607 28.635C14.388 28.635 14.6752 28.6243 15.0247 28.5057C15.7026 28.2756 16.3155 27.9095 17.1508 27.2357C17.6008 26.8728 18.421 26.2721 18.9735 25.9009C20.1839 25.0879 20.6012 24.7219 21.0016 24.1224L21.3053 23.6677L22.2351 23.6755C23.8706 23.6892 24.5394 23.4319 26.1046 22.1862C26.6088 21.785 27.4257 21.1906 27.9199 20.8653C28.9932 20.1587 29.5419 19.6671 29.9028 19.0887C30.2746 18.4925 30.4237 18.1131 30.7486 16.9361C30.9038 16.3739 31.1977 15.4718 31.4019 14.9315C32.2067 12.8014 32.2024 12.1206 31.3702 9.89609C31.1492 9.3055 30.9319 8.6761 30.8871 8.4975C30.7619 7.9971 30.6641 7.94487 29.5543 7.78532L28.5752 7.64454L28.3294 7.07459C28.1943 6.76103 28.0213 6.44478 27.9451 6.37162C27.8689 6.29853 27.4341 6.07961 26.9789 5.88515C26.2276 5.56425 26.1028 5.53155 25.6279 5.53148L25.1047 5.53134L24.4341 4.94982C23.8981 4.4851 23.674 4.33857 23.3181 4.22011C22.8135 4.05225 22.2712 3.73176 22.1745 3.54444C22.1387 3.47523 22.0884 3.09122 22.0624 2.69113C22.0049 1.80174 21.9226 1.4701 21.7348 1.36951C21.505 1.24654 17.7296 1.22035 17.1979 1.33805ZM20.3295 2.41402H20.9015L20.9451 2.95093C20.9691 3.24626 21.0222 3.61905 21.0631 3.77936C21.2075 4.34495 21.8271 4.87521 22.7489 5.22222C23.0947 5.35233 23.367 5.52421 23.717 5.83326C24.6817 6.68504 24.5968 6.64001 25.2381 6.64001C25.7465 6.64001 25.883 6.67007 26.4489 6.90701C26.7996 7.05388 27.1108 7.20199 27.1403 7.23608C27.1697 7.27023 27.2978 7.54755 27.4248 7.85238C27.7693 8.67908 27.812 8.7106 28.7487 8.82844C29.1831 8.88311 29.604 8.94248 29.6841 8.96035C29.8331 8.99374 29.8721 9.08519 30.5983 11.1085C30.8174 11.7189 30.847 11.8795 30.8474 12.4594C30.8477 13.1629 30.8893 13.0113 30.0681 15.2998C29.9519 15.6237 29.7458 16.294 29.6102 16.7893C29.1384 18.5125 28.8437 18.9047 27.2168 19.9741C26.7304 20.2938 26.0719 20.7664 25.7533 21.0245C24.1528 22.3208 23.7823 22.4984 22.5587 22.5561C21.8704 22.5885 21.7447 22.5787 21.7447 22.4924C21.7447 22.2834 22.1783 20.8472 22.5043 19.9761C23.0516 18.5139 23.0932 18.3354 23.0932 17.4474C23.0932 16.5536 23.0454 16.3478 22.5053 14.9188C22.3181 14.4234 22.0367 13.5505 21.8801 12.979C21.3059 10.8842 20.8397 10.2407 19.0082 9.01425C18.4366 8.63148 17.5949 8.01996 17.1376 7.65521C15.622 6.44617 14.906 6.19309 13.1177 6.23431C12.5281 6.24789 12.0457 6.23992 12.0457 6.21651C12.0457 6.09915 12.8218 5.4755 13.6295 4.94372C14.1283 4.61541 14.9393 4.02447 15.4319 3.63055C16.382 2.87063 17.0053 2.51399 17.5598 2.41298C17.7467 2.37889 18.3177 2.36525 18.8286 2.38257C19.3395 2.39989 20.0149 2.41402 20.3295 2.41402ZM28.408 2.44997C27.9916 2.63086 27.7776 2.8317 27.5307 3.27314C27.2354 3.80118 27.2278 3.97431 27.4845 4.3286C28.1105 5.19271 29.0222 5.48091 29.8403 5.0732C30.313 4.83766 30.434 4.65351 30.3749 4.25953C30.3121 3.84109 29.9143 3.04785 29.6334 2.78126C29.3899 2.55001 28.9733 2.3428 28.7613 2.34744C28.6934 2.34897 28.5344 2.39511 28.408 2.44997ZM29.0062 3.79169C29.0894 3.93981 29.1575 4.0801 29.1575 4.10344C29.1575 4.20591 28.872 4.13212 28.7017 3.98567C28.5403 3.84684 28.5262 3.80506 28.5964 3.67392C28.7146 3.45285 28.8352 3.48749 29.0062 3.79169ZM17.5518 3.99849C16.4794 4.48565 16.2108 5.87573 17.0306 6.6955C17.4013 7.06614 17.6334 7.15682 18.2115 7.15682C18.7863 7.15682 19.022 7.06579 19.3839 6.70395C19.7457 6.34211 19.8367 6.10642 19.8367 5.53155C19.8367 4.95349 19.7461 4.72134 19.3754 4.3507C19.0598 4.03507 18.6632 3.87191 18.2115 3.87191C17.9903 3.87191 17.7135 3.92505 17.5518 3.99849ZM18.446 5.05561C18.8474 5.2385 18.8268 5.84774 18.4133 6.01899C17.9777 6.1994 17.543 5.76682 17.7231 5.3321C17.8502 5.02519 18.1378 4.91518 18.446 5.05561ZM14.7889 7.48998C15.3363 7.69498 15.6488 7.89221 16.4936 8.5656C16.9622 8.93908 17.8151 9.56099 18.389 9.94764C18.9629 10.3343 19.5814 10.8099 19.7634 11.0045C20.1908 11.4614 20.488 12.1178 20.8143 13.3254C20.9584 13.8588 21.2145 14.6538 21.3836 15.092C21.8591 16.3252 21.961 16.679 22.0014 17.2396C22.047 17.8705 21.9475 18.3017 21.4655 19.562C21.2758 20.0583 20.98 20.9624 20.8082 21.5711C20.255 23.5318 20.0101 23.8701 18.3587 24.9561C17.8776 25.2725 17.1411 25.8061 16.722 26.142C15.7253 26.9408 15.2206 27.2639 14.7508 27.4037C14.177 27.5746 8.9445 27.5746 8.37066 27.4037C7.90179 27.2641 7.39668 26.9412 6.40537 26.147C5.98949 25.8138 5.20776 25.249 4.66828 24.8918C3.16771 23.8985 2.83788 23.4671 2.42006 21.9506C2.22171 21.2306 1.96968 20.4726 1.36529 18.7786C1.11839 18.0865 1.04925 17.4049 1.16577 16.8103C1.21281 16.5701 1.42051 15.9266 1.62737 15.3804C1.83417 14.8341 2.14371 13.8887 2.31524 13.2795C2.85035 11.3787 3.08596 11.0582 4.80268 9.89575C5.41421 9.4816 6.24188 8.8768 6.64196 8.55168C7.45328 7.89228 7.96933 7.58815 8.51262 7.44911C9.07155 7.30605 14.3904 7.34069 14.7889 7.48998ZM24.1606 8.97358C23.622 9.30785 23.6283 10.085 24.1722 10.4063C24.5566 10.6334 25.0707 10.4947 25.3031 10.1012C25.7268 9.38392 24.8669 8.53526 24.1606 8.97358ZM8.68415 10.095C7.61179 10.5822 7.3432 11.9722 8.16297 12.792C8.53361 13.1626 8.76576 13.2533 9.34382 13.2533C9.91869 13.2533 10.1544 13.1623 10.5162 12.8005C10.8781 12.4386 10.9691 12.2029 10.9691 11.6281C10.9691 11.05 10.8784 10.8178 10.5078 10.4472C10.1921 10.1316 9.79558 9.96842 9.34382 9.96842C9.12268 9.96842 8.84585 10.0216 8.68415 10.095ZM9.57833 11.1521C9.97979 11.335 9.95915 11.9442 9.5457 12.1155C9.11007 12.2959 8.67535 11.8633 8.85541 11.4286C8.98253 11.1217 9.27017 11.0117 9.57833 11.1521ZM26.4194 11.7577C25.3471 12.2448 25.0785 13.6349 25.8983 14.4547C26.2689 14.8253 26.501 14.916 27.0791 14.916C27.654 14.916 27.8897 14.825 28.2515 14.4631C28.6133 14.1013 28.7044 13.8656 28.7044 13.2907C28.7044 12.7127 28.6137 12.4805 28.2431 12.1099C27.9274 11.7943 27.5309 11.6311 27.0791 11.6311C26.858 11.6311 26.5811 11.6842 26.4194 11.7577ZM16.9557 12.8532C16.417 13.1874 16.4233 13.9646 16.9672 14.2859C17.3516 14.5129 17.8657 14.3743 18.0981 13.9808C18.5218 13.2635 17.6619 12.4149 16.9557 12.8532ZM27.3136 12.8148C27.7151 12.9977 27.6944 13.6069 27.281 13.7782C26.8454 13.9586 26.4106 13.526 26.5907 13.0913C26.7178 12.7844 27.0055 12.6744 27.3136 12.8148ZM10.3468 16.1915C9.27447 16.6787 9.00588 18.0687 9.82565 18.8885C10.1963 19.2591 10.4284 19.3498 11.0065 19.3498C11.5814 19.3498 11.8171 19.2588 12.1789 18.897C12.5407 18.5351 12.6318 18.2994 12.6318 17.7246C12.6318 17.1465 12.5411 16.9143 12.1704 16.5437C11.8548 16.2281 11.4583 16.0649 11.0065 16.0649C10.7854 16.0649 10.5085 16.1181 10.3468 16.1915ZM17.5518 16.7457C16.4794 17.2329 16.2108 18.623 17.0306 19.4427C17.4013 19.8134 17.6334 19.9041 18.2115 19.9041C18.7863 19.9041 19.022 19.813 19.3839 19.4512C19.7457 19.0893 19.8367 18.8537 19.8367 18.2788C19.8367 17.7007 19.7461 17.4686 19.3754 17.0979C19.0598 16.7823 18.6632 16.6192 18.2115 16.6192C17.9903 16.6192 17.7135 16.6723 17.5518 16.7457ZM11.241 17.2486C11.6425 17.4315 11.6218 18.0408 11.2084 18.212C10.7728 18.3924 10.338 17.9598 10.5181 17.5251C10.6452 17.2182 10.9329 17.1082 11.241 17.2486ZM4.76264 17.8412C4.224 18.1755 4.23031 18.9527 4.77421 19.2739C5.3105 19.5907 6.01845 19.1822 6.01845 18.5559C6.01845 17.9282 5.29027 17.5137 4.76264 17.8412ZM18.446 17.8028C18.8474 17.9857 18.8268 18.595 18.4133 18.7662C17.9777 18.9466 17.543 18.5141 17.7231 18.0793C17.8502 17.7724 18.1378 17.6624 18.446 17.8028ZM25.2691 17.8412C24.7304 18.1755 24.7367 18.9527 25.2806 19.2739C25.6651 19.501 26.1791 19.3623 26.4115 18.9688C26.8352 18.2516 25.9754 17.4029 25.2691 17.8412ZM7.57569 21.1796C6.50333 21.6667 6.23474 23.0568 7.05451 23.8766C7.42515 24.2472 7.6573 24.3379 8.23536 24.3379C8.81024 24.3379 9.04592 24.2469 9.40776 23.885C9.7696 23.5232 9.86064 23.2875 9.86064 22.7126C9.86064 22.1346 9.76995 21.9024 9.39931 21.5318C9.08368 21.2161 8.68713 21.053 8.23536 21.053C8.01423 21.053 7.73739 21.1061 7.57569 21.1796ZM8.46987 22.2367C8.87134 22.4196 8.85069 23.0288 8.43724 23.2001C8.00162 23.3805 7.5669 22.9479 7.74695 22.5132C7.87408 22.2063 8.16172 22.0962 8.46987 22.2367ZM14.1845 22.275C13.6459 22.6093 13.6522 23.3865 14.1961 23.7077C14.7324 24.0245 15.4403 23.616 15.4403 22.9897C15.4403 22.362 14.7121 21.9476 14.1845 22.275Z" fill="white"/>
<path fill-rule="evenodd" clip-rule="evenodd" d="M24.6197 0.0894485C23.7234 0.229322 23.1995 0.584998 23.1995 1.0538C23.1995 1.30508 24.9222 4.23764 25.1375 4.35285C25.2097 4.3915 25.3418 4.42309 25.4311 4.42309C25.7706 4.42309 25.8852 4.24879 26.2113 3.23608C26.5195 2.27893 26.5249 2.24623 26.5249 1.32905C26.5249 0.815764 26.4943 0.338782 26.4571 0.269088C26.3064 -0.0122522 25.6704 -0.0744644 24.6197 0.0894485ZM25.3443 2.21664L25.2657 2.50851L25.0759 2.20147C24.9714 2.03257 24.8007 1.74811 24.6966 1.56931L24.5073 1.24418L24.7367 1.20656C25.3981 1.09814 25.3796 1.08914 25.4024 1.52857C25.4137 1.74645 25.3875 2.05613 25.3443 2.21664ZM17.1979 1.33805C16.4293 1.50813 15.8644 1.84012 14.5171 2.91366C14.1294 3.22257 13.407 3.74084 12.9117 4.06541C11.9413 4.70118 11.1198 5.45209 10.8806 5.92187L10.7348 6.20819L9.57168 6.24138C8.62318 6.26847 8.33471 6.30137 8.00848 6.41956C7.31985 6.66896 6.81661 6.97843 5.86209 7.73932C5.35386 8.14439 4.5343 8.73901 4.04076 9.0606C2.89808 9.8052 2.20356 10.4861 1.8456 11.2126C1.70476 11.4984 1.43395 12.2778 1.24378 12.9446C1.05354 13.6112 0.740402 14.5693 0.547808 15.0735C0.0591172 16.3528 -0.0288665 16.7731 0.00715829 17.6553C0.0329299 18.2863 0.0743585 18.4883 0.319743 19.1794C0.999018 21.0925 1.10398 21.4096 1.34042 22.2623C1.83847 24.0588 2.2761 24.6375 4.03168 25.8214C4.64812 26.2371 5.52062 26.8739 5.97065 27.2364C6.80622 27.9097 7.41947 28.2758 8.09681 28.5057C8.44625 28.6243 8.73347 28.635 11.5607 28.635C14.388 28.635 14.6752 28.6243 15.0247 28.5057C15.7026 28.2756 16.3155 27.9095 17.1508 27.2357C17.6008 26.8728 18.421 26.2721 18.9735 25.9009C20.1839 25.0879 20.6012 24.7219 21.0016 24.1224L21.3053 23.6677L22.2351 23.6755C23.8706 23.6892 24.5394 23.4319 26.1046 22.1862C26.6088 21.785 27.4257 21.1906 27.9199 20.8653C28.9932 20.1587 29.5419 19.6671 29.9028 19.0887C30.2746 18.4925 30.4237 18.1131 30.7486 16.9361C30.9038 16.3739 31.1977 15.4718 31.4019 14.9315C32.2067 12.8014 32.2024 12.1206 31.3702 9.89609C31.1492 9.3055 30.9319 8.6761 30.8871 8.4975C30.7619 7.9971 30.6641 7.94487 29.5543 7.78532L28.5752 7.64454L28.3294 7.07459C28.1943 6.76103 28.0213 6.44478 27.9451 6.37162C27.8689 6.29853 27.4341 6.07961 26.9789 5.88515C26.2276 5.56425 26.1028 5.53155 25.6279 5.53148L25.1047 5.53134L24.4341 4.94982C23.8981 4.4851 23.674 4.33857 23.3181 4.22011C22.8135 4.05225 22.2712 3.73176 22.1745 3.54444C22.1387 3.47523 22.0884 3.09122 22.0624 2.69113C22.0049 1.80174 21.9226 1.4701 21.7348 1.36951C21.505 1.24654 17.7296 1.22035 17.1979 1.33805ZM20.3295 2.41402H20.9015L20.9451 2.95093C20.9691 3.24626 21.0222 3.61905 21.0631 3.77936C21.2075 4.34495 21.8271 4.87521 22.7489 5.22222C23.0947 5.35233 23.367 5.52421 23.717 5.83326C24.6817 6.68504 24.5968 6.64001 25.2381 6.64001C25.7465 6.64001 25.883 6.67007 26.4489 6.90701C26.7996 7.05388 27.1108 7.20199 27.1403 7.23608C27.1697 7.27023 27.2978 7.54755 27.4248 7.85238C27.7693 8.67908 27.812 8.7106 28.7487 8.82844C29.1831 8.88311 29.604 8.94248 29.6841 8.96035C29.8331 8.99374 29.8721 9.08519 30.5983 11.1085C30.8174 11.7189 30.847 11.8795 30.8474 12.4594C30.8477 13.1629 30.8893 13.0113 30.0681 15.2998C29.9519 15.6237 29.7458 16.294 29.6102 16.7893C29.1384 18.5125 28.8437 18.9047 27.2168 19.9741C26.7304 20.2938 26.0719 20.7664 25.7533 21.0245C24.1528 22.3208 23.7823 22.4984 22.5587 22.5561C21.8704 22.5885 21.7447 22.5787 21.7447 22.4924C21.7447 22.2834 22.1783 20.8472 22.5043 19.9761C23.0516 18.5139 23.0932 18.3354 23.0932 17.4474C23.0932 16.5536 23.0454 16.3478 22.5053 14.9188C22.3181 14.4234 22.0367 13.5505 21.8801 12.979C21.3059 10.8842 20.8397 10.2407 19.0082 9.01425C18.4366 8.63148 17.5949 8.01996 17.1376 7.65521C15.622 6.44617 14.906 6.19309 13.1177 6.23431C12.5281 6.24789 12.0457 6.23992 12.0457 6.21651C12.0457 6.09915 12.8218 5.4755 13.6295 4.94372C14.1283 4.61541 14.9393 4.02447 15.4319 3.63055C16.382 2.87063 17.0053 2.51399 17.5598 2.41298C17.7467 2.37889 18.3177 2.36525 18.8286 2.38257C19.3395 2.39989 20.0149 2.41402 20.3295 2.41402ZM28.408 2.44997C27.9916 2.63086 27.7776 2.8317 27.5307 3.27314C27.2354 3.80118 27.2278 3.97431 27.4845 4.3286C28.1105 5.19271 29.0222 5.48091 29.8403 5.0732C30.313 4.83766 30.434 4.65351 30.3749 4.25953C30.3121 3.84109 29.9143 3.04785 29.6334 2.78126C29.3899 2.55001 28.9733 2.3428 28.7613 2.34744C28.6934 2.34897 28.5344 2.39511 28.408 2.44997ZM29.0062 3.79169C29.0894 3.93981 29.1575 4.0801 29.1575 4.10344C29.1575 4.20591 28.872 4.13212 28.7017 3.98567C28.5403 3.84684 28.5262 3.80506 28.5964 3.67392C28.7146 3.45285 28.8352 3.48749 29.0062 3.79169ZM17.5518 3.99849C16.4794 4.48565 16.2108 5.87573 17.0306 6.6955C17.4013 7.06614 17.6334 7.15682 18.2115 7.15682C18.7863 7.15682 19.022 7.06579 19.3839 6.70395C19.7457 6.34211 19.8367 6.10642 19.8367 5.53155C19.8367 4.95349 19.7461 4.72134 19.3754 4.3507C19.0598 4.03507 18.6632 3.87191 18.2115 3.87191C17.9903 3.87191 17.7135 3.92505 17.5518 3.99849ZM18.446 5.05561C18.8474 5.2385 18.8268 5.84774 18.4133 6.01899C17.9777 6.1994 17.543 5.76682 17.7231 5.3321C17.8502 5.02519 18.1378 4.91518 18.446 5.05561ZM14.7889 7.48998C15.3363 7.69498 15.6488 7.89221 16.4936 8.5656C16.9622 8.93908 17.8151 9.56099 18.389 9.94764C18.9629 10.3343 19.5814 10.8099 19.7634 11.0045C20.1908 11.4614 20.488 12.1178 20.8143 13.3254C20.9584 13.8588 21.2145 14.6538 21.3836 15.092C21.8591 16.3252 21.961 16.679 22.0014 17.2396C22.047 17.8705 21.9475 18.3017 21.4655 19.562C21.2758 20.0583 20.98 20.9624 20.8082 21.5711C20.255 23.5318 20.0101 23.8701 18.3587 24.9561C17.8776 25.2725 17.1411 25.8061 16.722 26.142C15.7253 26.9408 15.2206 27.2639 14.7508 27.4037C14.177 27.5746 8.9445 27.5746 8.37066 27.4037C7.90179 27.2641 7.39668 26.9412 6.40537 26.147C5.98949 25.8138 5.20776 25.249 4.66828 24.8918C3.16771 23.8985 2.83788 23.4671 2.42006 21.9506C2.22171 21.2306 1.96968 20.4726 1.36529 18.7786C1.11839 18.0865 1.04925 17.4049 1.16577 16.8103C1.21281 16.5701 1.42051 15.9266 1.62737 15.3804C1.83417 14.8341 2.14371 13.8887 2.31524 13.2795C2.85035 11.3787 3.08596 11.0582 4.80268 9.89575C5.41421 9.4816 6.24188 8.8768 6.64196 8.55168C7.45328 7.89228 7.96933 7.58815 8.51262 7.44911C9.07155 7.30605 14.3904 7.34069 14.7889 7.48998ZM24.1606 8.97358C23.622 9.30785 23.6283 10.085 24.1722 10.4063C24.5566 10.6334 25.0707 10.4947 25.3031 10.1012C25.7268 9.38392 24.8669 8.53526 24.1606 8.97358ZM8.68415 10.095C7.61179 10.5822 7.3432 11.9722 8.16297 12.792C8.53361 13.1626 8.76576 13.2533 9.34382 13.2533C9.91869 13.2533 10.1544 13.1623 10.5162 12.8005C10.8781 12.4386 10.9691 12.2029 10.9691 11.6281C10.9691 11.05 10.8784 10.8178 10.5078 10.4472C10.1921 10.1316 9.79558 9.96842 9.34382 9.96842C9.12268 9.96842 8.84585 10.0216 8.68415 10.095ZM9.57833 11.1521C9.97979 11.335 9.95915 11.9442 9.5457 12.1155C9.11007 12.2959 8.67535 11.8633 8.85541 11.4286C8.98253 11.1217 9.27017 11.0117 9.57833 11.1521ZM26.4194 11.7577C25.3471 12.2448 25.0785 13.6349 25.8983 14.4547C26.2689 14.8253 26.501 14.916 27.0791 14.916C27.654 14.916 27.8897 14.825 28.2515 14.4631C28.6133 14.1013 28.7044 13.8656 28.7044 13.2907C28.7044 12.7127 28.6137 12.4805 28.2431 12.1099C27.9274 11.7943 27.5309 11.6311 27.0791 11.6311C26.858 11.6311 26.5811 11.6842 26.4194 11.7577ZM16.9557 12.8532C16.417 13.1874 16.4233 13.9646 16.9672 14.2859C17.3516 14.5129 17.8657 14.3743 18.0981 13.9808C18.5218 13.2635 17.6619 12.4149 16.9557 12.8532ZM27.3136 12.8148C27.7151 12.9977 27.6944 13.6069 27.281 13.7782C26.8454 13.9586 26.4106 13.526 26.5907 13.0913C26.7178 12.7844 27.0055 12.6744 27.3136 12.8148ZM10.3468 16.1915C9.27447 16.6787 9.00588 18.0687 9.82565 18.8885C10.1963 19.2591 10.4284 19.3498 11.0065 19.3498C11.5814 19.3498 11.8171 19.2588 12.1789 18.897C12.5407 18.5351 12.6318 18.2994 12.6318 17.7246C12.6318 17.1465 12.5411 16.9143 12.1704 16.5437C11.8548 16.2281 11.4583 16.0649 11.0065 16.0649C10.7854 16.0649 10.5085 16.1181 10.3468 16.1915ZM17.5518 16.7457C16.4794 17.2329 16.2108 18.623 17.0306 19.4427C17.4013 19.8134 17.6334 19.9041 18.2115 19.9041C18.7863 19.9041 19.022 19.813 19.3839 19.4512C19.7457 19.0893 19.8367 18.8537 19.8367 18.2788C19.8367 17.7007 19.7461 17.4686 19.3754 17.0979C19.0598 16.7823 18.6632 16.6192 18.2115 16.6192C17.9903 16.6192 17.7135 16.6723 17.5518 16.7457ZM11.241 17.2486C11.6425 17.4315 11.6218 18.0408 11.2084 18.212C10.7728 18.3924 10.338 17.9598 10.5181 17.5251C10.6452 17.2182 10.9329 17.1082 11.241 17.2486ZM4.76264 17.8412C4.224 18.1755 4.23031 18.9527 4.77421 19.2739C5.3105 19.5907 6.01845 19.1822 6.01845 18.5559C6.01845 17.9282 5.29027 17.5137 4.76264 17.8412ZM18.446 17.8028C18.8474 17.9857 18.8268 18.595 18.4133 18.7662C17.9777 18.9466 17.543 18.5141 17.7231 18.0793C17.8502 17.7724 18.1378 17.6624 18.446 17.8028ZM25.2691 17.8412C24.7304 18.1755 24.7367 18.9527 25.2806 19.2739C25.6651 19.501 26.1791 19.3623 26.4115 18.9688C26.8352 18.2516 25.9754 17.4029 25.2691 17.8412ZM7.57569 21.1796C6.50333 21.6667 6.23474 23.0568 7.05451 23.8766C7.42515 24.2472 7.6573 24.3379 8.23536 24.3379C8.81024 24.3379 9.04592 24.2469 9.40776 23.885C9.7696 23.5232 9.86064 23.2875 9.86064 22.7126C9.86064 22.1346 9.76995 21.9024 9.39931 21.5318C9.08368 21.2161 8.68713 21.053 8.23536 21.053C8.01423 21.053 7.73739 21.1061 7.57569 21.1796ZM8.46987 22.2367C8.87134 22.4196 8.85069 23.0288 8.43724 23.2001C8.00162 23.3805 7.5669 22.9479 7.74695 22.5132C7.87408 22.2063 8.16172 22.0962 8.46987 22.2367ZM14.1845 22.275C13.6459 22.6093 13.6522 23.3865 14.1961 23.7077C14.7324 24.0245 15.4403 23.616 15.4403 22.9897C15.4403 22.362 14.7121 21.9476 14.1845 22.275Z" fill="#145FA0" fill-opacity="0.5"/>
</svg>
