<svg width="20" height="20" viewBox="0 0 20 20" fill="none" xmlns="http://www.w3.org/2000/svg">
<path d="M18.1501 20H1.84989C1.36013 19.9975 0.891211 19.82 0.544888 19.506C0.198565 19.1921 0.00277495 18.767 0 18.323V6.31528C0.00273781 6.12544 0.0871449 5.94406 0.235237 5.80981C0.383328 5.67555 0.583396 5.59903 0.792812 5.59655H19.2072C19.4166 5.59903 19.6167 5.67555 19.7648 5.80981C19.9129 5.94406 19.9973 6.12544 20 6.31528V18.323C19.9972 18.767 19.8014 19.1921 19.4551 19.506C19.1088 19.82 18.6399 19.9975 18.1501 20V20ZM1.58562 7.03402V18.323C1.58562 18.3865 1.61347 18.4474 1.66303 18.4924C1.71259 18.5373 1.77981 18.5625 1.84989 18.5625H18.1501C18.2202 18.5625 18.2874 18.5373 18.337 18.4924C18.3865 18.4474 18.4144 18.3865 18.4144 18.323V7.03402H1.58562Z" fill="white"/>
<path d="M18.1501 20H1.84989C1.36013 19.9975 0.891211 19.82 0.544888 19.506C0.198565 19.1921 0.00277495 18.767 0 18.323V6.31528C0.00273781 6.12544 0.0871449 5.94406 0.235237 5.80981C0.383328 5.67555 0.583396 5.59903 0.792812 5.59655H19.2072C19.4166 5.59903 19.6167 5.67555 19.7648 5.80981C19.9129 5.94406 19.9973 6.12544 20 6.31528V18.323C19.9972 18.767 19.8014 19.1921 19.4551 19.506C19.1088 19.82 18.6399 19.9975 18.1501 20V20ZM1.58562 7.03402V18.323C1.58562 18.3865 1.61347 18.4474 1.66303 18.4924C1.71259 18.5373 1.77981 18.5625 1.84989 18.5625H18.1501C18.2202 18.5625 18.2874 18.5373 18.337 18.4924C18.3865 18.4474 18.4144 18.3865 18.4144 18.323V7.03402H1.58562Z" fill="#145FA0" fill-opacity="0.5"/>
<path d="M19.2089 7.03402C19.0731 7.03759 18.9387 7.00951 18.8184 6.95246C18.6981 6.89541 18.5959 6.8113 18.5218 6.70819L15.1708 1.55247C15.1469 1.51843 15.1141 1.49018 15.0755 1.47014C15.0368 1.45011 14.9933 1.4389 14.9488 1.43747H5.05453C5.00961 1.43711 4.96539 1.44756 4.92639 1.46776C4.88738 1.48797 4.855 1.5172 4.83254 1.55247L1.48159 6.70819C1.37413 6.8645 1.20534 6.97809 1.0092 7.0261C0.81306 7.07411 0.60414 7.05297 0.424506 6.96694C0.249873 6.87126 0.123393 6.7175 0.0720474 6.53847C0.0207017 6.35944 0.0485544 6.1693 0.149664 6.00862L3.4689 0.824149C3.63185 0.574056 3.86364 0.366616 4.1416 0.222145C4.41955 0.0776747 4.73413 0.00112739 5.05453 0L14.9488 0C15.2692 0.00112739 15.5838 0.0776747 15.8617 0.222145C16.1397 0.366616 16.3715 0.574056 16.5344 0.824149L19.8854 5.95113C19.9594 6.0593 19.9999 6.18353 20.0027 6.3108C20.0055 6.43807 19.9705 6.56367 19.9013 6.67443C19.8321 6.78519 19.7313 6.87703 19.6095 6.9403C19.4876 7.00357 19.3493 7.03594 19.2089 7.03402V7.03402Z" fill="white"/>
<path d="M19.2089 7.03402C19.0731 7.03759 18.9387 7.00951 18.8184 6.95246C18.6981 6.89541 18.5959 6.8113 18.5218 6.70819L15.1708 1.55247C15.1469 1.51843 15.1141 1.49018 15.0755 1.47014C15.0368 1.45011 14.9933 1.4389 14.9488 1.43747H5.05453C5.00961 1.43711 4.96539 1.44756 4.92639 1.46776C4.88738 1.48797 4.855 1.5172 4.83254 1.55247L1.48159 6.70819C1.37413 6.8645 1.20534 6.97809 1.0092 7.0261C0.81306 7.07411 0.60414 7.05297 0.424506 6.96694C0.249873 6.87126 0.123393 6.7175 0.0720474 6.53847C0.0207017 6.35944 0.0485544 6.1693 0.149664 6.00862L3.4689 0.824149C3.63185 0.574056 3.86364 0.366616 4.1416 0.222145C4.41955 0.0776747 4.73413 0.00112739 5.05453 0L14.9488 0C15.2692 0.00112739 15.5838 0.0776747 15.8617 0.222145C16.1397 0.366616 16.3715 0.574056 16.5344 0.824149L19.8854 5.95113C19.9594 6.0593 19.9999 6.18353 20.0027 6.3108C20.0055 6.43807 19.9705 6.56367 19.9013 6.67443C19.8321 6.78519 19.7313 6.87703 19.6095 6.9403C19.4876 7.00357 19.3493 7.03594 19.2089 7.03402V7.03402Z" fill="#145FA0" fill-opacity="0.5"/>
<path d="M9.99984 7.03402C9.78958 7.03402 9.58792 6.9583 9.43924 6.82351C9.29056 6.68872 9.20703 6.50591 9.20703 6.31529V0.718735C9.20703 0.528115 9.29056 0.345302 9.43924 0.210513C9.58792 0.0757236 9.78958 0 9.99984 0C10.2101 0 10.4118 0.0757236 10.5604 0.210513C10.7091 0.345302 10.7927 0.528115 10.7927 0.718735V6.31529C10.7927 6.50591 10.7091 6.68872 10.5604 6.82351C10.4118 6.9583 10.2101 7.03402 9.99984 7.03402V7.03402Z" fill="white"/>
<path d="M9.99984 7.03402C9.78958 7.03402 9.58792 6.9583 9.43924 6.82351C9.29056 6.68872 9.20703 6.50591 9.20703 6.31529V0.718735C9.20703 0.528115 9.29056 0.345302 9.43924 0.210513C9.58792 0.0757236 9.78958 0 9.99984 0C10.2101 0 10.4118 0.0757236 10.5604 0.210513C10.7091 0.345302 10.7927 0.528115 10.7927 0.718735V6.31529C10.7927 6.50591 10.7091 6.68872 10.5604 6.82351C10.4118 6.9583 10.2101 7.03402 9.99984 7.03402V7.03402Z" fill="#145FA0" fill-opacity="0.5"/>
<path d="M8.74031 10.8673H5.01937C4.80911 10.8673 4.60745 10.7915 4.45877 10.6568C4.31009 10.522 4.22656 10.3392 4.22656 10.1485C4.22656 9.95792 4.31009 9.7751 4.45877 9.64031C4.60745 9.50553 4.80911 9.4298 5.01937 9.4298H8.74031C8.95057 9.4298 9.15223 9.50553 9.30091 9.64031C9.44959 9.7751 9.53312 9.95792 9.53312 10.1485C9.53312 10.3392 9.44959 10.522 9.30091 10.6568C9.15223 10.7915 8.95057 10.8673 8.74031 10.8673Z" fill="white"/>
<path d="M8.74031 10.8673H5.01937C4.80911 10.8673 4.60745 10.7915 4.45877 10.6568C4.31009 10.522 4.22656 10.3392 4.22656 10.1485C4.22656 9.95792 4.31009 9.7751 4.45877 9.64031C4.60745 9.50553 4.80911 9.4298 5.01937 9.4298H8.74031C8.95057 9.4298 9.15223 9.50553 9.30091 9.64031C9.44959 9.7751 9.53312 9.95792 9.53312 10.1485C9.53312 10.3392 9.44959 10.522 9.30091 10.6568C9.15223 10.7915 8.95057 10.8673 8.74031 10.8673Z" fill="#145FA0" fill-opacity="0.5"/>
</svg>
