<svg width="20" height="20" viewBox="0 0 20 20" fill="none" xmlns="http://www.w3.org/2000/svg">
<path d="M3.12147 11.6339C2.84492 11.6266 2.57057 11.5814 2.30572 11.4998C1.78327 11.3607 1.30567 11.084 0.920644 10.6972C0.53562 10.3104 0.256655 9.82712 0.111623 9.29563C-0.0900772 8.54431 -0.0167333 7.7436 0.317905 7.0436V7.0436L2.512 1.62913C2.70573 1.1465 3.03573 0.733789 3.45991 0.443635C3.88408 0.153481 4.38321 -0.000966306 4.89362 -6.27753e-06H15.1046C15.6153 -0.00225264 16.115 0.151679 16.5394 0.441996C16.9638 0.732313 17.2935 1.14574 17.4862 1.62913L19.6897 7.01485C20.0202 7.71604 20.0934 8.51519 19.896 9.26688C19.7467 9.81501 19.4567 10.3124 19.0561 10.7074C18.6555 11.1025 18.1588 11.3809 17.6175 11.5139C17.0762 11.6468 16.51 11.6294 15.9775 11.4635C15.445 11.2976 14.9656 10.9891 14.5889 10.5702C14.2981 10.8959 13.944 11.1561 13.5492 11.3341C13.1545 11.5121 12.7278 11.6041 12.2963 11.6041C11.8649 11.6041 11.4382 11.5121 11.0434 11.3341C10.6487 11.1561 10.2946 10.8959 10.0038 10.5702C9.71297 10.8959 9.35888 11.1561 8.96415 11.3341C8.56941 11.5121 8.1427 11.6041 7.71125 11.6041C7.2798 11.6041 6.85308 11.5121 6.45835 11.3341C6.06361 11.1561 5.70953 10.8959 5.4187 10.5702C5.12996 10.9019 4.77629 11.1681 4.38057 11.3513C3.98485 11.5345 3.5559 11.6308 3.12147 11.6339V11.6339ZM1.5556 7.73358C1.39197 8.11068 1.36212 8.5343 1.47121 8.93147C1.57576 9.29207 1.79156 9.60848 2.08642 9.83349C2.38128 10.0585 2.73942 10.1801 3.1074 10.1801C3.47539 10.1801 3.83352 10.0585 4.12839 9.83349C4.42325 9.60848 4.63905 9.29207 4.7436 8.93147C4.78917 8.78476 4.87906 8.65658 5.00035 8.56533C5.12164 8.47408 5.2681 8.42445 5.4187 8.42357V8.42357C5.56931 8.42445 5.71577 8.47408 5.83706 8.56533C5.95835 8.65658 6.04823 8.78476 6.09381 8.93147C6.20052 9.28604 6.41565 9.5963 6.70761 9.81671C6.99957 10.0371 7.35297 10.156 7.71594 10.156C8.0789 10.156 8.4323 10.0371 8.72426 9.81671C9.01622 9.5963 9.23135 9.28604 9.33807 8.93147C9.38351 8.78732 9.47235 8.66152 9.5919 8.57203C9.71145 8.48254 9.85561 8.43393 10.0038 8.43315C10.1523 8.43244 10.2972 8.48047 10.417 8.57018C10.5369 8.65988 10.6254 8.78652 10.6695 8.93147C10.7762 9.28604 10.9914 9.5963 11.2833 9.81671C11.5753 10.0371 11.9287 10.156 12.2917 10.156C12.6546 10.156 13.008 10.0371 13.3 9.81671C13.5919 9.5963 13.8071 9.28604 13.9138 8.93147C13.9581 8.78397 14.0476 8.65494 14.1692 8.56347C14.2908 8.47201 14.4379 8.42295 14.5889 8.42357V8.42357C14.739 8.4219 14.8855 8.47072 15.0058 8.56249C15.1261 8.65427 15.2135 8.78392 15.2546 8.93147C15.3909 9.36208 15.6841 9.72263 16.0733 9.93847C16.4625 10.1543 16.918 10.2089 17.3456 10.091C17.6279 10.0125 17.8857 9.861 18.0942 9.65123C18.3028 9.44145 18.455 9.1804 18.5364 8.89314C18.6409 8.49551 18.6111 8.07348 18.452 7.69525C18.4308 7.66647 18.4149 7.634 18.4051 7.59942L16.1923 2.13703C16.103 1.91766 15.9519 1.73038 15.7583 1.59898C15.5646 1.46759 15.337 1.39802 15.1046 1.39913H4.89362C4.6622 1.39735 4.4356 1.46678 4.2433 1.59838C4.05099 1.72998 3.90187 1.91766 3.81533 2.13703L1.60248 7.6665C1.58585 7.68811 1.57021 7.71049 1.5556 7.73358Z" fill="#00295E"/>
<path d="M15.9951 20H4.01198C3.57679 20 3.15942 19.8233 2.8517 19.5088C2.54397 19.1943 2.37109 18.7677 2.37109 18.3229V10.9152C2.37109 10.7246 2.44518 10.5417 2.57707 10.407C2.70895 10.2722 2.88782 10.1964 3.07433 10.1964C3.26084 10.1964 3.43971 10.2722 3.57159 10.407C3.70347 10.5417 3.77756 10.7246 3.77756 10.9152V18.3229C3.77756 18.3865 3.80226 18.4474 3.84622 18.4923C3.89018 18.5373 3.94981 18.5625 4.01198 18.5625H15.9951C16.0573 18.5625 16.1169 18.5373 16.1609 18.4923C16.2048 18.4474 16.2295 18.3865 16.2295 18.3229V10.9152C16.2295 10.7246 16.3036 10.5417 16.4355 10.407C16.5674 10.2722 16.7462 10.1964 16.9327 10.1964C17.1193 10.1964 17.2981 10.2722 17.43 10.407C17.5619 10.5417 17.636 10.7246 17.636 10.9152V18.3229C17.6335 18.7669 17.4598 19.192 17.1527 19.506C16.8455 19.82 16.4295 19.9975 15.9951 20Z" fill="#00295E"/>
<path d="M12.1891 20C12.0026 20 11.8237 19.9243 11.6918 19.7895C11.5599 19.6547 11.4858 19.4719 11.4858 19.2813V16.5022C11.4858 16.098 11.3288 15.7105 11.0492 15.4247C10.7696 15.139 10.3904 14.9784 9.99498 14.9784C9.59958 14.9784 9.22038 15.139 8.94079 15.4247C8.6612 15.7105 8.50413 16.098 8.50413 16.5022V19.2813C8.50413 19.4719 8.43004 19.6547 8.29815 19.7895C8.16627 19.9243 7.9874 20 7.80089 20C7.61438 20 7.43551 19.9243 7.30363 19.7895C7.17175 19.6547 7.09766 19.4719 7.09766 19.2813V16.5022C7.09766 15.7168 7.40291 14.9636 7.94626 14.4083C8.48962 13.853 9.22656 13.541 9.99498 13.541C10.7634 13.541 11.5003 13.853 12.0437 14.4083C12.5871 14.9636 12.8923 15.7168 12.8923 16.5022V19.2813C12.8899 19.4711 12.815 19.6525 12.6837 19.7867C12.5523 19.921 12.3748 19.9975 12.1891 20V20Z" fill="#00295E"/>
</svg>
