<svg width="20" height="21" viewBox="0 0 20 21" fill="none" xmlns="http://www.w3.org/2000/svg">
<g clip-path="url(#clip0_245_13768)">
<path d="M14.8809 20.5H5.11817C4.38183 20.5 3.67565 20.2136 3.15498 19.7037C2.63431 19.1938 2.3418 18.5023 2.3418 17.7813V5.16634C2.3418 4.96969 2.42157 4.78109 2.56357 4.64204C2.70558 4.50299 2.89817 4.42487 3.09899 4.42487C3.29981 4.42487 3.49241 4.50299 3.63441 4.64204C3.77641 4.78109 3.85618 4.96969 3.85618 5.16634V17.7813C3.85618 18.109 3.98914 18.4233 4.22581 18.6551C4.46248 18.8869 4.78347 19.0171 5.11817 19.0171H14.8809C15.0475 19.0184 15.2127 18.9874 15.367 18.9258C15.5212 18.8643 15.6616 18.7735 15.7798 18.6586C15.8981 18.5437 15.9919 18.4071 16.056 18.2565C16.12 18.1059 16.153 17.9444 16.153 17.7813V5.16634C16.153 4.96969 16.2328 4.78109 16.3748 4.64204C16.5168 4.50299 16.7094 4.42487 16.9102 4.42487C17.111 4.42487 17.3036 4.50299 17.4456 4.64204C17.5876 4.78109 17.6674 4.96969 17.6674 5.16634V17.7813C17.6674 18.1391 17.5952 18.4935 17.4551 18.824C17.3149 19.1545 17.1095 19.4546 16.8506 19.7072C16.5918 19.9598 16.2845 20.1598 15.9465 20.2959C15.6085 20.4319 15.2464 20.5013 14.8809 20.5Z" fill="white"/>
<path d="M14.8809 20.5H5.11817C4.38183 20.5 3.67565 20.2136 3.15498 19.7037C2.63431 19.1938 2.3418 18.5023 2.3418 17.7813V5.16634C2.3418 4.96969 2.42157 4.78109 2.56357 4.64204C2.70558 4.50299 2.89817 4.42487 3.09899 4.42487C3.29981 4.42487 3.49241 4.50299 3.63441 4.64204C3.77641 4.78109 3.85618 4.96969 3.85618 5.16634V17.7813C3.85618 18.109 3.98914 18.4233 4.22581 18.6551C4.46248 18.8869 4.78347 19.0171 5.11817 19.0171H14.8809C15.0475 19.0184 15.2127 18.9874 15.367 18.9258C15.5212 18.8643 15.6616 18.7735 15.7798 18.6586C15.8981 18.5437 15.9919 18.4071 16.056 18.2565C16.12 18.1059 16.153 17.9444 16.153 17.7813V5.16634C16.153 4.96969 16.2328 4.78109 16.3748 4.64204C16.5168 4.50299 16.7094 4.42487 16.9102 4.42487C17.111 4.42487 17.3036 4.50299 17.4456 4.64204C17.5876 4.78109 17.6674 4.96969 17.6674 5.16634V17.7813C17.6674 18.1391 17.5952 18.4935 17.4551 18.824C17.3149 19.1545 17.1095 19.4546 16.8506 19.7072C16.5918 19.9598 16.2845 20.1598 15.9465 20.2959C15.6085 20.4319 15.2464 20.5013 14.8809 20.5Z" fill="#1D1D1B" fill-opacity="0.55"/>
<path d="M13.8112 5.90781C13.6112 5.90525 13.4202 5.82631 13.2787 5.68781C13.1373 5.5493 13.0567 5.36219 13.0541 5.16634V2.20044C13.0541 2.13489 13.0275 2.07203 12.9801 2.02568C12.9328 1.97933 12.8686 1.95329 12.8017 1.95329H7.19843C7.13148 1.95329 7.06729 1.97933 7.01995 2.02568C6.97262 2.07203 6.94603 2.13489 6.94603 2.20044V5.16634C6.94603 5.36299 6.86625 5.55158 6.72425 5.69064C6.58225 5.82969 6.38965 5.90781 6.18883 5.90781C5.98801 5.90781 5.79542 5.82969 5.65342 5.69064C5.51142 5.55158 5.43164 5.36299 5.43164 5.16634V2.20044C5.44215 1.74756 5.6326 1.31655 5.96253 0.999015C6.29245 0.681479 6.73583 0.502457 7.19843 0.5L12.8017 0.5C13.2702 0.5 13.7196 0.682278 14.051 1.00674C14.3823 1.33119 14.5684 1.77125 14.5684 2.2301V5.196C14.5606 5.38746 14.4774 5.56852 14.3362 5.70123C14.1951 5.83393 14.0069 5.90796 13.8112 5.90781Z" fill="white"/>
<path d="M13.8112 5.90781C13.6112 5.90525 13.4202 5.82631 13.2787 5.68781C13.1373 5.5493 13.0567 5.36219 13.0541 5.16634V2.20044C13.0541 2.13489 13.0275 2.07203 12.9801 2.02568C12.9328 1.97933 12.8686 1.95329 12.8017 1.95329H7.19843C7.13148 1.95329 7.06729 1.97933 7.01995 2.02568C6.97262 2.07203 6.94603 2.13489 6.94603 2.20044V5.16634C6.94603 5.36299 6.86625 5.55158 6.72425 5.69064C6.58225 5.82969 6.38965 5.90781 6.18883 5.90781C5.98801 5.90781 5.79542 5.82969 5.65342 5.69064C5.51142 5.55158 5.43164 5.36299 5.43164 5.16634V2.20044C5.44215 1.74756 5.6326 1.31655 5.96253 0.999015C6.29245 0.681479 6.73583 0.502457 7.19843 0.5L12.8017 0.5C13.2702 0.5 13.7196 0.682278 14.051 1.00674C14.3823 1.33119 14.5684 1.77125 14.5684 2.2301V5.196C14.5606 5.38746 14.4774 5.56852 14.3362 5.70123C14.1951 5.83393 14.0069 5.90796 13.8112 5.90781Z" fill="#1D1D1B" fill-opacity="0.55"/>
<path d="M7.90563 16.3181C7.70481 16.3181 7.51222 16.24 7.37021 16.1009C7.22821 15.9619 7.14844 15.7733 7.14844 15.5766V9.50643C7.14844 9.30978 7.22821 9.12118 7.37021 8.98213C7.51222 8.84307 7.70481 8.76495 7.90563 8.76495C8.10645 8.76495 8.29905 8.84307 8.44105 8.98213C8.58305 9.12118 8.66282 9.30978 8.66282 9.50643V15.5964C8.66151 15.6925 8.64088 15.7873 8.60211 15.8756C8.56334 15.9639 8.5072 16.0438 8.43689 16.1108C8.36657 16.1778 8.28346 16.2306 8.19231 16.2662C8.10116 16.3018 8.00374 16.3194 7.90563 16.3181V16.3181Z" fill="white"/>
<path d="M7.90563 16.3181C7.70481 16.3181 7.51222 16.24 7.37021 16.1009C7.22821 15.9619 7.14844 15.7733 7.14844 15.5766V9.50643C7.14844 9.30978 7.22821 9.12118 7.37021 8.98213C7.51222 8.84307 7.70481 8.76495 7.90563 8.76495C8.10645 8.76495 8.29905 8.84307 8.44105 8.98213C8.58305 9.12118 8.66282 9.30978 8.66282 9.50643V15.5964C8.66151 15.6925 8.64088 15.7873 8.60211 15.8756C8.56334 15.9639 8.5072 16.0438 8.43689 16.1108C8.36657 16.1778 8.28346 16.2306 8.19231 16.2662C8.10116 16.3018 8.00374 16.3194 7.90563 16.3181V16.3181Z" fill="#1D1D1B" fill-opacity="0.55"/>
<path d="M12.1146 16.3181C11.9138 16.3181 11.7212 16.24 11.5792 16.1009C11.4372 15.9619 11.3574 15.7733 11.3574 15.5766V9.50643C11.3574 9.30978 11.4372 9.12118 11.5792 8.98213C11.7212 8.84307 11.9138 8.76495 12.1146 8.76495C12.3154 8.76495 12.508 8.84307 12.65 8.98213C12.792 9.12118 12.8718 9.30978 12.8718 9.50643V15.5964C12.8665 15.7896 12.7845 15.9732 12.643 16.108C12.5016 16.2428 12.312 16.3182 12.1146 16.3181V16.3181Z" fill="white"/>
<path d="M12.1146 16.3181C11.9138 16.3181 11.7212 16.24 11.5792 16.1009C11.4372 15.9619 11.3574 15.7733 11.3574 15.5766V9.50643C11.3574 9.30978 11.4372 9.12118 11.5792 8.98213C11.7212 8.84307 11.9138 8.76495 12.1146 8.76495C12.3154 8.76495 12.508 8.84307 12.65 8.98213C12.792 9.12118 12.8718 9.30978 12.8718 9.50643V15.5964C12.8665 15.7896 12.7845 15.9732 12.643 16.108C12.5016 16.2428 12.312 16.3182 12.1146 16.3181V16.3181Z" fill="#1D1D1B" fill-opacity="0.55"/>
<path d="M19.2431 5.90781H0.757482C0.64751 5.92968 0.53395 5.92734 0.425016 5.90095C0.316082 5.87457 0.214498 5.82481 0.127612 5.75527C0.0407257 5.68573 -0.0292895 5.59814 -0.0773691 5.49885C-0.125449 5.39957 -0.150391 5.29105 -0.150391 5.18117C-0.150391 5.07128 -0.125449 4.96277 -0.0773691 4.86348C-0.0292895 4.76419 0.0407257 4.67661 0.127612 4.60706C0.214498 4.53752 0.316082 4.48776 0.425016 4.46138C0.53395 4.435 0.64751 4.43266 0.757482 4.45452H19.2431C19.4439 4.45452 19.6365 4.53264 19.7785 4.6717C19.9205 4.81075 20.0003 4.99935 20.0003 5.196C20.0003 5.39265 19.9205 5.58124 19.7785 5.7203C19.6365 5.85935 19.4439 5.93747 19.2431 5.93747V5.90781Z" fill="white"/>
<path d="M19.2431 5.90781H0.757482C0.64751 5.92968 0.53395 5.92734 0.425016 5.90095C0.316082 5.87457 0.214498 5.82481 0.127612 5.75527C0.0407257 5.68573 -0.0292895 5.59814 -0.0773691 5.49885C-0.125449 5.39957 -0.150391 5.29105 -0.150391 5.18117C-0.150391 5.07128 -0.125449 4.96277 -0.0773691 4.86348C-0.0292895 4.76419 0.0407257 4.67661 0.127612 4.60706C0.214498 4.53752 0.316082 4.48776 0.425016 4.46138C0.53395 4.435 0.64751 4.43266 0.757482 4.45452H19.2431C19.4439 4.45452 19.6365 4.53264 19.7785 4.6717C19.9205 4.81075 20.0003 4.99935 20.0003 5.196C20.0003 5.39265 19.9205 5.58124 19.7785 5.7203C19.6365 5.85935 19.4439 5.93747 19.2431 5.93747V5.90781Z" fill="#1D1D1B" fill-opacity="0.55"/>
</g>
<defs>
<clipPath id="clip0_245_13768">
<rect width="20" height="20" fill="white" transform="translate(0 0.5)"/>
</clipPath>
</defs>
</svg>
