<svg width="24" height="17" viewBox="0 0 24 17" fill="none" xmlns="http://www.w3.org/2000/svg">
<path fill-rule="evenodd" clip-rule="evenodd" d="M2.6366 0.309306C2.03242 0.526214 1.94589 1.27224 2.47904 1.66729L2.61138 1.76536L8.65352 1.77759L14.6957 1.78983L14.7092 4.52C14.7212 6.95633 14.731 7.2653 14.8003 7.3908C14.9008 7.57302 15.0641 7.72345 15.2297 7.78613C15.3179 7.81955 16.3592 7.83699 18.3705 7.83877L21.3794 7.84135L21.9292 8.55367L22.4791 9.26595L22.4801 11.1997L22.4811 13.1334H21.7619H21.0427L20.9839 12.9342C20.7765 12.2318 20.1635 11.5328 19.4303 11.1627C18.5739 10.7304 17.5013 10.7622 16.6213 11.2459C16.0326 11.5696 15.4233 12.3124 15.2168 12.9581L15.1605 13.1343L12.9339 13.1222L10.7073 13.11L10.6208 12.8641C10.3986 12.2333 9.83571 11.5635 9.2613 11.2466C8.584 10.8728 7.7159 10.7581 7.01113 10.9494C6.05091 11.2098 5.19617 12.0002 4.91546 12.8873L4.8376 13.1334H3.8013C2.81975 13.1334 2.75403 13.139 2.55625 13.2389C2.27052 13.3833 2.13575 13.5973 2.13575 13.9069C2.13575 14.2165 2.27052 14.4306 2.55625 14.575C2.75403 14.6749 2.81971 14.6804 3.80359 14.6804H4.84214L4.9419 14.954C5.18586 15.6231 5.7567 16.2529 6.42514 16.5906C7.37317 17.0695 8.57814 16.9897 9.45576 16.39C9.98108 16.0311 10.4442 15.4436 10.6057 14.9313L10.6848 14.6804H12.9308H15.1768L15.2043 14.7857C15.2194 14.8436 15.3158 15.0586 15.4183 15.2636C15.6376 15.7017 16.1549 16.2498 16.5902 16.5052C17.2677 16.9027 18.24 17.0108 18.9896 16.7719C19.8736 16.4901 20.638 15.7766 20.9415 14.95L21.0404 14.6804H22.1962C23.3016 14.6804 23.361 14.6758 23.5609 14.575C23.6986 14.5054 23.8056 14.4055 23.8747 14.282L23.9797 14.0944L23.9805 11.4879C23.981 9.69957 23.9649 8.83471 23.9293 8.73242C23.9007 8.65047 23.5521 8.16739 23.1546 7.65894L22.432 6.7345L21.3027 4.48432C20.6816 3.24672 20.122 2.16556 20.0591 2.08174C19.8385 1.78767 19.8467 1.7888 17.9596 1.7888H16.2462V1.33482C16.2462 0.798204 16.1588 0.566483 15.887 0.382437L15.714 0.26524L9.26477 0.255162C3.90317 0.24677 2.7853 0.255912 2.6366 0.309306ZM19.7438 4.78969L20.499 6.28915H18.3726H16.2462V4.78903V3.28891L17.6174 3.28957L18.9886 3.29027L19.7438 4.78969ZM1.56842 3.48852C1.39295 3.60511 1.19817 3.94404 1.19817 4.13273C1.19817 4.34645 1.39394 4.66293 1.59664 4.77684L1.78416 4.88223L5.23804 4.87079C8.66018 4.85944 8.69313 4.85846 8.82425 4.76128C9.27485 4.42736 9.28531 3.79605 8.84526 3.49701L8.67701 3.38267H5.20236H1.72771L1.56842 3.48852ZM0.424767 6.40986C0.219814 6.51675 0.115227 6.62138 0.0431748 6.79159C-0.143355 7.23225 0.101633 7.71248 0.574357 7.83291C0.842878 7.90135 7.01183 7.90201 7.33065 7.83361C7.88002 7.71581 8.12534 7.08327 7.79152 6.64557C7.54456 6.32187 7.71989 6.33598 3.95693 6.33631C0.972873 6.33659 0.548433 6.3454 0.424767 6.40986ZM1.83103 9.33293C1.61619 9.38478 1.49468 9.46321 1.36426 9.63413C1.08782 9.9966 1.20717 10.5111 1.6182 10.7284C1.82166 10.836 1.8286 10.8364 3.72526 10.8356C5.60777 10.8348 5.63022 10.8337 5.81572 10.7299C6.06718 10.5893 6.22839 10.2818 6.19895 9.99894C6.16501 9.67327 5.92298 9.41436 5.57772 9.33425C5.36212 9.28428 2.03758 9.28306 1.83103 9.33293ZM8.30878 12.4844C9.28985 12.8514 9.58209 14.1771 8.84441 14.9141C8.5141 15.244 8.23808 15.3602 7.78463 15.3601C7.33689 15.3601 6.99481 15.2243 6.70843 14.9331C6.42364 14.6434 6.28755 14.3025 6.28934 13.8835C6.29098 13.5094 6.35951 13.2922 6.57389 12.9817C6.71115 12.783 7.1002 12.5076 7.34148 12.4383C7.62378 12.3573 8.01953 12.3761 8.30878 12.4844ZM18.7339 12.5307C19.6759 12.9671 19.8985 14.196 19.169 14.933C18.8782 15.2267 18.5438 15.3601 18.0979 15.3601C17.7818 15.3602 17.6808 15.3395 17.455 15.2286C16.5297 14.7742 16.3345 13.5108 17.0785 12.7914C17.5036 12.3803 18.1795 12.2739 18.7339 12.5307Z" fill="#10509A"/>
</svg>
