<svg width="20" height="15" viewBox="0 0 20 15" fill="none" xmlns="http://www.w3.org/2000/svg">
<path fill-rule="evenodd" clip-rule="evenodd" d="M1.26969 0.0720302C0.849756 0.193517 0.48924 0.472742 0.254821 0.858024C-0.0138566 1.2996 0.000128061 0.960174 0.000128061 7.03722C0.000128061 13.1051 -0.0139347 12.7617 0.252673 13.199C0.496428 13.5988 0.8796 13.8877 1.31438 13.9996C1.52961 14.0551 2.42631 14.0614 10.0003 14.0614C17.5744 14.0614 18.4711 14.0551 18.6863 13.9996C19.1212 13.8877 19.5043 13.5988 19.7483 13.1986C20.0113 12.7673 19.9994 13.0595 20 7.01613C20.0005 2.16059 19.9937 1.5262 19.9388 1.31288C19.8268 0.878102 19.5379 0.49493 19.1381 0.251175C18.6934 -0.0200031 19.3651 -0.00168231 9.98238 0.0014037C2.05459 0.00402094 1.48883 0.0085913 1.26969 0.0720302ZM14.5708 4.57103C12.6908 6.4392 11.0754 8.02013 10.981 8.08416C10.6684 8.29615 10.4123 8.37104 10.0003 8.37104C9.58834 8.37104 9.33228 8.29615 9.01966 8.08416C8.92524 8.02013 7.30986 6.4392 5.42993 4.57103L2.01189 1.17432H10.0003H17.9888L14.5708 4.57103ZM6.03452 6.8321L6.2289 7.03117L5.4095 7.85353C4.95879 8.30584 3.82103 9.43278 2.88105 10.3578L1.17203 12.0397V7.02999V2.02035L3.50606 4.32669C4.78976 5.59516 5.92756 6.7226 6.03452 6.8321ZM18.8192 9.53009L18.8091 12.0301L16.2895 9.53056L13.77 7.03097L16.2895 4.53435L18.8091 2.0377L18.8192 4.53389C18.8247 5.90677 18.8247 8.15506 18.8192 9.53009ZM7.61467 8.40948C8.1971 8.98086 8.38351 9.12297 8.80208 9.31473C9.54737 9.65618 10.4533 9.65618 11.1986 9.31473C11.6178 9.12266 11.8036 8.98082 12.3919 8.4037L12.928 7.87783L14.9506 9.87314C16.063 10.9705 17.2014 12.0982 17.4804 12.379L17.9877 12.8895L9.9998 12.8875L2.01189 12.8854L4.53148 10.3882C5.91725 9.01465 7.0586 7.89056 7.06778 7.89017C7.07696 7.88974 7.32306 8.12346 7.61467 8.40948Z" fill="#10509A"/>
</svg>
