<svg width="22" height="20" viewBox="0 0 22 20" fill="none" xmlns="http://www.w3.org/2000/svg">
<g clip-path="url(#clip0_4038_4802)">
<path d="M11.0291 20C10.452 20.0011 9.89783 19.7572 9.48674 19.3213L1.80429 11.052C1.23732 10.4563 0.785893 9.7453 0.476183 8.96031C0.166473 8.17532 0.00464922 7.33196 9.87176e-05 6.47913C-0.00445179 5.6263 0.148361 4.78099 0.449674 3.99223C0.750987 3.20347 1.1948 2.48695 1.75537 1.88425C2.31595 1.28154 2.98212 0.804647 3.71525 0.481221C4.44838 0.157795 5.23388 -0.00572267 6.02617 0.000152899C6.81847 0.00602847 7.6018 0.18118 8.33072 0.515449C9.05964 0.849717 9.71964 1.33645 10.2724 1.94741L11.0291 2.76181L11.7954 1.94741C12.3504 1.34885 13.0096 0.873978 13.7353 0.549975C14.461 0.225971 15.2389 0.0591972 16.0246 0.0591972C16.8102 0.0591972 17.5882 0.225971 18.3139 0.549975C19.0396 0.873978 19.6988 1.34885 20.2538 1.94741C21.3722 3.15665 22 4.79345 22 6.49971C22 8.20597 21.3722 9.84277 20.2538 11.052L12.5714 19.3213C12.1603 19.7572 11.6061 20.0011 11.0291 20ZM6.04322 1.62374C5.14106 1.61625 4.25737 1.8989 3.50539 2.43546C2.75342 2.97203 2.16743 3.73806 1.8225 4.63539C1.47758 5.53273 1.38944 6.52049 1.56939 7.47208C1.74933 8.42368 2.18915 9.29576 2.8325 9.97658L10.5149 18.2459C10.6514 18.3925 10.8363 18.4749 11.0291 18.4749C11.2218 18.4749 11.4067 18.3925 11.5432 18.2459L19.2256 9.97658C19.6714 9.53041 20.0292 8.99209 20.2774 8.39378C20.5256 7.79547 20.6593 7.14944 20.6704 6.49429C20.6814 5.83913 20.5697 5.18829 20.3419 4.58065C20.1141 3.97301 19.7748 3.42103 19.3443 2.95769C18.9139 2.49435 18.4011 2.12915 17.8365 1.88391C17.272 1.63867 16.6674 1.51843 16.0587 1.53036C15.4501 1.54229 14.8499 1.68614 14.294 1.95334C13.7382 2.22053 13.2381 2.60558 12.8236 3.08548L11.8536 4.12959C11.6253 4.36939 11.3189 4.50361 11 4.50361C10.681 4.50361 10.3746 4.36939 10.1463 4.12959L9.17634 3.08548C8.3491 2.17696 7.22476 1.6524 6.04322 1.62374Z" fill="white"/>
</g>
<defs>
<clipPath id="clip0_4038_4802">
<rect width="22" height="20" fill="white"/>
</clipPath>
</defs>
</svg>
