<svg width="16" height="17" viewBox="0 0 16 17" fill="none" xmlns="http://www.w3.org/2000/svg">
<path fill-rule="evenodd" clip-rule="evenodd" d="M7.79608 1.5336C7.69886 1.58642 1.09883 8.19874 1.0483 8.29392C0.888777 8.5945 1.1468 9.00733 1.49421 9.00733C1.57007 9.00733 1.66286 8.99178 1.70039 8.97279C1.7379 8.9538 3.17044 7.53524 4.88384 5.82039L7.99908 2.70253L11.1143 5.82039C12.8277 7.53524 14.2603 8.9538 14.2978 8.97279C14.4149 9.03208 14.6314 9.01447 14.7473 8.93618C14.9648 8.78937 15.0604 8.5077 14.9602 8.30907C14.9113 8.21204 8.31354 1.59706 8.21144 1.54268C8.11257 1.49002 7.88543 1.48504 7.79608 1.5336ZM2.74992 9.57913C2.69196 9.61824 2.61195 9.69872 2.57213 9.75792L2.49974 9.86556L2.50945 11.6815C2.5191 13.4878 2.51954 13.4986 2.59202 13.7165C2.87591 14.5697 3.47413 15.1639 4.31388 15.4267L4.54811 15.5H7.99908H11.45L11.6843 15.4267C12.524 15.1639 13.1222 14.5697 13.4061 13.7165C13.4786 13.4986 13.4791 13.4878 13.4887 11.6815L13.4984 9.86556L13.426 9.75792C13.2007 9.4229 12.7919 9.42193 12.5673 9.75585L12.4963 9.86142V11.4952C12.4963 12.4757 12.4835 13.1964 12.4644 13.2975C12.3554 13.8732 11.8529 14.377 11.2818 14.4831C11.0537 14.5255 4.94443 14.5255 4.71632 14.4831C4.14527 14.377 3.64274 13.8732 3.53378 13.2975C3.51463 13.1964 3.50189 12.4757 3.50189 11.4952V9.86142L3.43087 9.75585C3.32182 9.59368 3.1736 9.50797 3.0022 9.50797C2.90111 9.50797 2.82241 9.53016 2.74992 9.57913Z" fill="white"/>
<path fill-rule="evenodd" clip-rule="evenodd" d="M7.79608 1.5336C7.69886 1.58642 1.09883 8.19874 1.0483 8.29392C0.888777 8.5945 1.1468 9.00733 1.49421 9.00733C1.57007 9.00733 1.66286 8.99178 1.70039 8.97279C1.7379 8.9538 3.17044 7.53524 4.88384 5.82039L7.99908 2.70253L11.1143 5.82039C12.8277 7.53524 14.2603 8.9538 14.2978 8.97279C14.4149 9.03208 14.6314 9.01447 14.7473 8.93618C14.9648 8.78937 15.0604 8.5077 14.9602 8.30907C14.9113 8.21204 8.31354 1.59706 8.21144 1.54268C8.11257 1.49002 7.88543 1.48504 7.79608 1.5336ZM2.74992 9.57913C2.69196 9.61824 2.61195 9.69872 2.57213 9.75792L2.49974 9.86556L2.50945 11.6815C2.5191 13.4878 2.51954 13.4986 2.59202 13.7165C2.87591 14.5697 3.47413 15.1639 4.31388 15.4267L4.54811 15.5H7.99908H11.45L11.6843 15.4267C12.524 15.1639 13.1222 14.5697 13.4061 13.7165C13.4786 13.4986 13.4791 13.4878 13.4887 11.6815L13.4984 9.86556L13.426 9.75792C13.2007 9.4229 12.7919 9.42193 12.5673 9.75585L12.4963 9.86142V11.4952C12.4963 12.4757 12.4835 13.1964 12.4644 13.2975C12.3554 13.8732 11.8529 14.377 11.2818 14.4831C11.0537 14.5255 4.94443 14.5255 4.71632 14.4831C4.14527 14.377 3.64274 13.8732 3.53378 13.2975C3.51463 13.1964 3.50189 12.4757 3.50189 11.4952V9.86142L3.43087 9.75585C3.32182 9.59368 3.1736 9.50797 3.0022 9.50797C2.90111 9.50797 2.82241 9.53016 2.74992 9.57913Z" fill="#1D1D1B" fill-opacity="0.55"/>
</svg>
