<svg width="30" height="30" viewBox="0 0 30 30" fill="none" xmlns="http://www.w3.org/2000/svg">
<path d="M15.0049 0C8.74253 0 6.91103 0.00646208 6.55502 0.036003C5.26988 0.142858 4.47018 0.34526 3.59896 0.779143C2.92755 1.11263 2.39804 1.4992 1.87544 2.0411C0.923698 3.02933 0.346883 4.24513 0.138077 5.69033C0.0365572 6.39193 0.00702432 6.53502 0.00102545 10.1187C-0.00128181 11.3133 0.00102545 12.8854 0.00102545 14.9941C0.00102545 21.2531 0.00794723 23.0833 0.0379416 23.4387C0.141768 24.6896 0.337885 25.4765 0.753192 26.3374C1.54689 27.9852 3.06276 29.2222 4.84858 29.6838C5.46692 29.8431 6.14987 29.9308 7.02663 29.9723C7.3981 29.9885 11.1843 30 14.9728 30C18.7613 30 22.5499 29.9954 22.9121 29.9769C23.9273 29.9292 24.5168 29.85 25.1686 29.6815C26.0541 29.4544 26.8793 29.0366 27.5867 28.4574C28.294 27.8782 28.8665 27.1516 29.264 26.3282C29.6712 25.4881 29.8777 24.6711 29.9712 23.4855C29.9915 23.227 30 19.1058 30 14.9902C30 10.8738 29.9908 6.76026 29.9705 6.50178C29.8759 5.29706 29.6694 4.487 29.249 3.63077C28.9041 2.92986 28.521 2.40643 27.965 1.87124C26.9729 0.923155 25.7593 0.346183 24.3128 0.13755C23.6121 0.0362338 23.4725 0.0062313 19.8871 0H15.0049Z" fill="url(#paint0_radial_408_29993)"/>
<path d="M15.0049 0C8.74253 0 6.91103 0.00646208 6.55502 0.036003C5.26988 0.142858 4.47018 0.34526 3.59896 0.779143C2.92755 1.11263 2.39804 1.4992 1.87544 2.0411C0.923698 3.02933 0.346883 4.24513 0.138077 5.69033C0.0365572 6.39193 0.00702432 6.53502 0.00102545 10.1187C-0.00128181 11.3133 0.00102545 12.8854 0.00102545 14.9941C0.00102545 21.2531 0.00794723 23.0833 0.0379416 23.4387C0.141768 24.6896 0.337885 25.4765 0.753192 26.3374C1.54689 27.9852 3.06276 29.2222 4.84858 29.6838C5.46692 29.8431 6.14987 29.9308 7.02663 29.9723C7.3981 29.9885 11.1843 30 14.9728 30C18.7613 30 22.5499 29.9954 22.9121 29.9769C23.9273 29.9292 24.5168 29.85 25.1686 29.6815C26.0541 29.4544 26.8793 29.0366 27.5867 28.4574C28.294 27.8782 28.8665 27.1516 29.264 26.3282C29.6712 25.4881 29.8777 24.6711 29.9712 23.4855C29.9915 23.227 30 19.1058 30 14.9902C30 10.8738 29.9908 6.76026 29.9705 6.50178C29.8759 5.29706 29.6694 4.487 29.249 3.63077C28.9041 2.92986 28.521 2.40643 27.965 1.87124C26.9729 0.923155 25.7593 0.346183 24.3128 0.13755C23.6121 0.0362338 23.4725 0.0062313 19.8871 0H15.0049Z" fill="url(#paint1_radial_408_29993)"/>
<path d="M14.9974 3.9234C11.9897 3.9234 11.6122 3.93656 10.4309 3.99033C9.25187 4.04433 8.4471 4.23104 7.74293 4.50499C7.01452 4.78794 6.39664 5.16643 5.78106 5.7824C5.16503 6.39815 4.78664 7.0162 4.50284 7.74457C4.22828 8.44917 4.04139 9.25439 3.98832 10.4333C3.93572 11.6149 3.92188 11.9927 3.92188 15.0013C3.92188 18.0098 3.93526 18.3862 3.98879 19.5679C4.04301 20.7472 4.22966 21.5522 4.5033 22.2566C4.7864 22.9852 5.1648 23.6032 5.7806 24.219C6.39595 24.8352 7.01383 25.2146 7.74177 25.4975C8.44641 25.7715 9.25141 25.9582 10.4302 26.0122C11.6115 26.066 11.9887 26.0791 14.9963 26.0791C18.0042 26.0791 18.3805 26.066 19.5619 26.0122C20.7409 25.9582 21.5466 25.7715 22.2512 25.4975C22.9794 25.2146 23.5963 24.8352 24.2117 24.219C24.8277 23.6032 25.2061 22.9852 25.4899 22.2568C25.7622 21.5522 25.949 20.747 26.0044 19.5681C26.0575 18.3865 26.0713 18.0098 26.0713 15.0013C26.0713 11.9927 26.0575 11.6151 26.0044 10.4335C25.949 9.25416 25.7622 8.44917 25.4899 7.7448C25.2061 7.0162 24.8277 6.39815 24.2117 5.7824C23.5956 5.1662 22.9796 4.7877 22.2505 4.50499C21.5445 4.23104 20.7393 4.04433 19.5602 3.99033C18.3789 3.93656 18.0028 3.9234 14.9942 3.9234H14.9974ZM14.0039 5.91972C14.2988 5.91926 14.6278 5.91972 14.9974 5.91972C17.9544 5.91972 18.3049 5.93034 19.4726 5.98342C20.5524 6.03281 21.1384 6.21329 21.5288 6.36492C22.0456 6.5657 22.4141 6.80572 22.8015 7.19345C23.1891 7.58117 23.4291 7.95043 23.6302 8.4674C23.7818 8.85743 23.9625 9.44364 24.0116 10.5237C24.0647 11.6915 24.0762 12.0423 24.0762 14.9987C24.0762 17.9551 24.0647 18.3059 24.0116 19.4737C23.9623 20.5538 23.7818 21.14 23.6302 21.53C23.4295 22.047 23.1891 22.4151 22.8015 22.8026C22.4139 23.1903 22.0459 23.4304 21.5288 23.6311C21.1389 23.7835 20.5524 23.9635 19.4726 24.0129C18.3051 24.066 17.9544 24.0775 14.9974 24.0775C12.0402 24.0775 11.6897 24.066 10.5222 24.0129C9.44245 23.963 8.85641 23.7825 8.46579 23.6309C7.94896 23.4301 7.5798 23.1901 7.19218 22.8024C6.80456 22.4147 6.56461 22.0463 6.36342 21.5291C6.21183 21.1391 6.03117 20.5529 5.98203 19.4728C5.92896 18.305 5.91835 17.9542 5.91835 14.996C5.91835 12.0377 5.92896 11.6888 5.98203 10.521C6.0314 9.44087 6.21183 8.85466 6.36342 8.46417C6.56415 7.9472 6.80456 7.57794 7.19218 7.19022C7.5798 6.80249 7.94896 6.56247 8.46579 6.36122C8.85618 6.2089 9.44245 6.02889 10.5222 5.97927C11.5439 5.93311 11.9398 5.91926 14.0039 5.91695V5.91972ZM20.9091 7.75911C20.6462 7.75911 20.3892 7.83709 20.1707 7.98318C19.9521 8.12927 19.7818 8.33691 19.6812 8.57984C19.5806 8.82277 19.5543 9.09009 19.6057 9.34797C19.657 9.60584 19.7836 9.84271 19.9695 10.0286C20.1554 10.2145 20.3922 10.3411 20.6501 10.3923C20.9079 10.4436 21.1751 10.4172 21.418 10.3165C21.6608 10.2158 21.8683 10.0453 22.0143 9.82666C22.1603 9.60799 22.2381 9.35093 22.238 9.08799C22.238 8.35408 21.6428 7.75865 20.9091 7.75865V7.75911ZM14.9974 9.31232C11.8565 9.31232 9.31002 11.8595 9.31002 15.0013C9.31002 18.143 11.8565 20.6891 14.9974 20.6891C18.1383 20.6891 20.6841 18.143 20.6841 15.0013C20.6841 11.8595 18.1383 9.31232 14.9974 9.31232ZM14.9974 11.3086C17.0361 11.3086 18.689 12.9618 18.689 15.0013C18.689 17.0405 17.0361 18.6939 14.9974 18.6939C12.9585 18.6939 11.3058 17.0405 11.3058 15.0013C11.3058 12.9618 12.9585 11.3086 14.9974 11.3086Z" fill="white"/>
<defs>
<radialGradient id="paint0_radial_408_29993" cx="0" cy="0" r="1" gradientUnits="userSpaceOnUse" gradientTransform="translate(7.96879 32.3106) rotate(-90) scale(29.7322 27.6533)">
<stop stop-color="#FFDD55"/>
<stop offset="0.1" stop-color="#FFDD55"/>
<stop offset="0.5" stop-color="#FF543E"/>
<stop offset="1" stop-color="#C837AB"/>
</radialGradient>
<radialGradient id="paint1_radial_408_29993" cx="0" cy="0" r="1" gradientUnits="userSpaceOnUse" gradientTransform="translate(-5.02516 2.16115) rotate(78.6806) scale(13.2904 54.7837)">
<stop stop-color="#3771C8"/>
<stop offset="0.128" stop-color="#3771C8"/>
<stop offset="1" stop-color="#6600FF" stop-opacity="0"/>
</radialGradient>
</defs>
</svg>
