<svg width="20" height="20" viewBox="0 0 20 20" fill="none" xmlns="http://www.w3.org/2000/svg">
<path d="M16.201 1.48295H3.79898C3.61557 1.48295 3.43967 1.40483 3.30998 1.26577C3.18028 1.12672 3.10742 0.938124 3.10742 0.741473C3.10742 0.544822 3.18028 0.356226 3.30998 0.217172C3.43967 0.0781193 3.61557 0 3.79898 0L16.201 0C16.3844 0 16.5603 0.0781193 16.69 0.217172C16.8197 0.356226 16.8926 0.544822 16.8926 0.741473C16.8926 0.938124 16.8197 1.12672 16.69 1.26577C16.5603 1.40483 16.3844 1.48295 16.201 1.48295Z" fill="white"/>
<path d="M16.201 1.48295H3.79898C3.61557 1.48295 3.43967 1.40483 3.30998 1.26577C3.18028 1.12672 3.10742 0.938124 3.10742 0.741473C3.10742 0.544822 3.18028 0.356226 3.30998 0.217172C3.43967 0.0781193 3.61557 0 3.79898 0L16.201 0C16.3844 0 16.5603 0.0781193 16.69 0.217172C16.8197 0.356226 16.8926 0.544822 16.8926 0.741473C16.8926 0.938124 16.8197 1.12672 16.69 1.26577C16.5603 1.40483 16.3844 1.48295 16.201 1.48295Z" fill="#145FA0" fill-opacity="0.5"/>
<path d="M18.3858 20H7.81872C7.39076 20 6.98032 19.8177 6.6777 19.4933C6.37509 19.1688 6.20508 18.7287 6.20508 18.2699V6.58428C6.20508 6.38763 6.27794 6.19903 6.40763 6.05998C6.53733 5.92093 6.71323 5.84281 6.89664 5.84281C7.08005 5.84281 7.25596 5.92093 7.38565 6.05998C7.51534 6.19903 7.5882 6.38763 7.5882 6.58428V18.2699C7.5882 18.3354 7.61249 18.3983 7.65572 18.4447C7.69895 18.491 7.75759 18.5171 7.81872 18.5171H18.3858C18.4469 18.5171 18.5056 18.491 18.5488 18.4447C18.592 18.3983 18.6163 18.3354 18.6163 18.2699V4.06327C18.6139 3.37802 18.3583 2.72173 17.9055 2.2381C17.4527 1.75448 16.8396 1.48294 16.2005 1.48295C16.0178 1.48039 15.8433 1.40144 15.7141 1.26294C15.5849 1.12444 15.5113 0.937328 15.5089 0.741473C15.5113 0.545618 15.5849 0.358506 15.7141 0.220004C15.8433 0.0815019 16.0178 0.00256052 16.2005 0C17.2064 -3.177e-06 18.1713 0.427775 18.8835 1.1895C19.5957 1.95123 19.997 2.98472 19.9995 4.06327V18.2699C19.9995 18.7287 19.8294 19.1688 19.5268 19.4933C19.2242 19.8177 18.8138 20 18.3858 20V20Z" fill="white"/>
<path d="M18.3858 20H7.81872C7.39076 20 6.98032 19.8177 6.6777 19.4933C6.37509 19.1688 6.20508 18.7287 6.20508 18.2699V6.58428C6.20508 6.38763 6.27794 6.19903 6.40763 6.05998C6.53733 5.92093 6.71323 5.84281 6.89664 5.84281C7.08005 5.84281 7.25596 5.92093 7.38565 6.05998C7.51534 6.19903 7.5882 6.38763 7.5882 6.58428V18.2699C7.5882 18.3354 7.61249 18.3983 7.65572 18.4447C7.69895 18.491 7.75759 18.5171 7.81872 18.5171H18.3858C18.4469 18.5171 18.5056 18.491 18.5488 18.4447C18.592 18.3983 18.6163 18.3354 18.6163 18.2699V4.06327C18.6139 3.37802 18.3583 2.72173 17.9055 2.2381C17.4527 1.75448 16.8396 1.48294 16.2005 1.48295C16.0178 1.48039 15.8433 1.40144 15.7141 1.26294C15.5849 1.12444 15.5113 0.937328 15.5089 0.741473C15.5113 0.545618 15.5849 0.358506 15.7141 0.220004C15.8433 0.0815019 16.0178 0.00256052 16.2005 0C17.2064 -3.177e-06 18.1713 0.427775 18.8835 1.1895C19.5957 1.95123 19.997 2.98472 19.9995 4.06327V18.2699C19.9995 18.7287 19.8294 19.1688 19.5268 19.4933C19.2242 19.8177 18.8138 20 18.3858 20V20Z" fill="#145FA0" fill-opacity="0.5"/>
<path d="M15.077 15.0568H11.1213C10.9378 15.0568 10.7619 14.9787 10.6322 14.8397C10.5025 14.7006 10.4297 14.512 10.4297 14.3154C10.4297 14.1187 10.5025 13.9301 10.6322 13.7911C10.7619 13.652 10.9378 13.5739 11.1213 13.5739H15.077C15.2604 13.5739 15.4363 13.652 15.566 13.7911C15.6957 13.9301 15.7686 14.1187 15.7686 14.3154C15.7686 14.512 15.6957 14.7006 15.566 14.8397C15.4363 14.9787 15.2604 15.0568 15.077 15.0568V15.0568Z" fill="white"/>
<path d="M15.077 15.0568H11.1213C10.9378 15.0568 10.7619 14.9787 10.6322 14.8397C10.5025 14.7006 10.4297 14.512 10.4297 14.3154C10.4297 14.1187 10.5025 13.9301 10.6322 13.7911C10.7619 13.652 10.9378 13.5739 11.1213 13.5739H15.077C15.2604 13.5739 15.4363 13.652 15.566 13.7911C15.6957 13.9301 15.7686 14.1187 15.7686 14.3154C15.7686 14.512 15.6957 14.7006 15.566 14.8397C15.4363 14.9787 15.2604 15.0568 15.077 15.0568V15.0568Z" fill="#145FA0" fill-opacity="0.5"/>
<path d="M15.077 10.7464H11.1213C10.9378 10.7464 10.7619 10.6683 10.6322 10.5292C10.5025 10.3902 10.4297 10.2016 10.4297 10.0049C10.4297 9.8083 10.5025 9.6197 10.6322 9.48065C10.7619 9.34159 10.9378 9.26347 11.1213 9.26347H15.077C15.2604 9.26347 15.4363 9.34159 15.566 9.48065C15.6957 9.6197 15.7686 9.8083 15.7686 10.0049C15.7686 10.2016 15.6957 10.3902 15.566 10.5292C15.4363 10.6683 15.2604 10.7464 15.077 10.7464Z" fill="white"/>
<path d="M15.077 10.7464H11.1213C10.9378 10.7464 10.7619 10.6683 10.6322 10.5292C10.5025 10.3902 10.4297 10.2016 10.4297 10.0049C10.4297 9.8083 10.5025 9.6197 10.6322 9.48065C10.7619 9.34159 10.9378 9.26347 11.1213 9.26347H15.077C15.2604 9.26347 15.4363 9.34159 15.566 9.48065C15.6957 9.6197 15.7686 9.8083 15.7686 10.0049C15.7686 10.2016 15.6957 10.3902 15.566 10.5292C15.4363 10.6683 15.2604 10.7464 15.077 10.7464Z" fill="#145FA0" fill-opacity="0.5"/>
<path d="M6.89719 7.32575H1.61365C1.18643 7.32316 0.777395 7.14004 0.475301 6.81615C0.173207 6.49225 0.00242056 6.0537 0 5.59565L0 4.06327C0.0480282 3.019 0.468754 2.03452 1.17507 1.31365C1.88139 0.592775 2.81921 0.19072 3.79437 0.19072C4.76954 0.19072 5.70736 0.592775 6.41368 1.31365C7.12 2.03452 7.54072 3.019 7.58875 4.06327V6.58428C7.58636 6.78013 7.51273 6.96724 7.38356 7.10575C7.25438 7.24425 7.07986 7.32319 6.89719 7.32575V7.32575ZM3.79899 1.48294C3.48217 1.48164 3.16822 1.54742 2.87517 1.67651C2.58212 1.8056 2.31573 1.99546 2.09127 2.2352C1.86682 2.47493 1.68872 2.75983 1.5672 3.07353C1.44568 3.38724 1.38312 3.72358 1.38313 4.06327V5.59565C1.38313 5.6612 1.40741 5.72406 1.45064 5.77041C1.49387 5.81676 1.55251 5.8428 1.61365 5.8428H6.22407V4.06327C6.22408 3.72275 6.16122 3.38559 6.03912 3.07123C5.91703 2.75688 5.7381 2.47154 5.51267 2.23168C5.28724 1.99181 5.01975 1.80216 4.72563 1.67365C4.43151 1.54515 4.11658 1.48033 3.79899 1.48294V1.48294Z" fill="white"/>
<path d="M6.89719 7.32575H1.61365C1.18643 7.32316 0.777395 7.14004 0.475301 6.81615C0.173207 6.49225 0.00242056 6.0537 0 5.59565L0 4.06327C0.0480282 3.019 0.468754 2.03452 1.17507 1.31365C1.88139 0.592775 2.81921 0.19072 3.79437 0.19072C4.76954 0.19072 5.70736 0.592775 6.41368 1.31365C7.12 2.03452 7.54072 3.019 7.58875 4.06327V6.58428C7.58636 6.78013 7.51273 6.96724 7.38356 7.10575C7.25438 7.24425 7.07986 7.32319 6.89719 7.32575V7.32575ZM3.79899 1.48294C3.48217 1.48164 3.16822 1.54742 2.87517 1.67651C2.58212 1.8056 2.31573 1.99546 2.09127 2.2352C1.86682 2.47493 1.68872 2.75983 1.5672 3.07353C1.44568 3.38724 1.38312 3.72358 1.38313 4.06327V5.59565C1.38313 5.6612 1.40741 5.72406 1.45064 5.77041C1.49387 5.81676 1.55251 5.8428 1.61365 5.8428H6.22407V4.06327C6.22408 3.72275 6.16122 3.38559 6.03912 3.07123C5.91703 2.75688 5.7381 2.47154 5.51267 2.23168C5.28724 1.99181 5.01975 1.80216 4.72563 1.67365C4.43151 1.54515 4.11658 1.48033 3.79899 1.48294V1.48294Z" fill="#145FA0" fill-opacity="0.5"/>
<path d="M15.077 6.43598H11.1213C10.9378 6.43598 10.7619 6.35786 10.6322 6.21881C10.5025 6.07975 10.4297 5.89116 10.4297 5.69451C10.4297 5.49786 10.5025 5.30926 10.6322 5.17021C10.7619 5.03115 10.9378 4.95303 11.1213 4.95303H15.077C15.2604 4.95303 15.4363 5.03115 15.566 5.17021C15.6957 5.30926 15.7686 5.49786 15.7686 5.69451C15.7686 5.89116 15.6957 6.07975 15.566 6.21881C15.4363 6.35786 15.2604 6.43598 15.077 6.43598Z" fill="white"/>
<path d="M15.077 6.43598H11.1213C10.9378 6.43598 10.7619 6.35786 10.6322 6.21881C10.5025 6.07975 10.4297 5.89116 10.4297 5.69451C10.4297 5.49786 10.5025 5.30926 10.6322 5.17021C10.7619 5.03115 10.9378 4.95303 11.1213 4.95303H15.077C15.2604 4.95303 15.4363 5.03115 15.566 5.17021C15.6957 5.30926 15.7686 5.49786 15.7686 5.69451C15.7686 5.89116 15.6957 6.07975 15.566 6.21881C15.4363 6.35786 15.2604 6.43598 15.077 6.43598Z" fill="#145FA0" fill-opacity="0.5"/>
</svg>
