<svg width="16" height="17" viewBox="0 0 16 17" fill="none" xmlns="http://www.w3.org/2000/svg">
<path d="M4.19543 3.36193C4.45577 3.10158 4.87788 3.10158 5.13823 3.36193L7.8049 6.0286C8.06525 6.28895 8.06525 6.71106 7.8049 6.97141C7.54455 7.23176 7.12244 7.23176 6.86209 6.97141L5.3335 5.44281V13.1667C5.3335 13.5349 5.03502 13.8333 4.66683 13.8333C4.29864 13.8333 4.00016 13.5349 4.00016 13.1667V5.44281L2.47157 6.97141C2.21122 7.23176 1.78911 7.23176 1.52876 6.97141C1.26841 6.71106 1.26841 6.28895 1.52876 6.0286L4.19543 3.36193ZM10.6668 11.5572V3.83333C10.6668 3.46514 10.9653 3.16667 11.3335 3.16667C11.7017 3.16667 12.0002 3.46514 12.0002 3.83333V11.5572L13.5288 10.0286C13.7891 9.76825 14.2112 9.76825 14.4716 10.0286C14.7319 10.2889 14.7319 10.7111 14.4716 10.9714L11.8049 13.6381C11.6799 13.7631 11.5103 13.8333 11.3335 13.8333C11.1567 13.8333 10.9871 13.7631 10.8621 13.6381L8.19543 10.9714C7.93508 10.7111 7.93508 10.2889 8.19543 10.0286C8.45577 9.76825 8.87788 9.76825 9.13823 10.0286L10.6668 11.5572Z" fill="#10509A"/>
</svg>
