<svg width="30" height="30" viewBox="0 0 30 30" fill="none" xmlns="http://www.w3.org/2000/svg">
<path d="M13.4715 1.07389C14.0597 -0.357954 16.0054 -0.357966 16.5936 1.07387L19.7241 8.69439C19.9723 9.29859 20.5207 9.70978 21.1488 9.76254L28.4298 10.3742C29.976 10.5041 30.5598 12.5507 29.3332 13.5414L23.392 18.3399C22.8488 18.7786 22.6124 19.5155 22.7931 20.2069L24.7434 27.6713C25.1652 29.2859 23.4043 30.5544 22.1066 29.5708L16.0308 24.9654C15.4355 24.5142 14.6295 24.5142 14.0342 24.9654L7.84746 29.6549C6.56228 30.629 4.81301 29.3934 5.20277 27.7867L7.04922 20.1752C7.21318 19.4993 6.98197 18.7859 6.45849 18.3525L0.639103 13.5347C-0.568217 12.5352 0.0222044 10.5097 1.55851 10.3806L8.91638 9.76254C9.54445 9.70978 10.0929 9.29858 10.3411 8.69437L13.4715 1.07389Z" fill="#10509A"/>
</svg>
