<svg width="30" height="30" viewBox="0 0 30 30" fill="none" xmlns="http://www.w3.org/2000/svg">
<path d="M7.21688 29.9998C6.72688 29.9853 6.25244 29.8168 5.85555 29.5163C5.49535 29.2442 5.21522 28.8723 5.04682 28.4425C4.87842 28.0128 4.82847 27.5425 4.90262 27.0846L6.03252 20.2306C6.0699 19.9386 6.03721 19.6415 5.93741 19.366C5.83761 19.0904 5.67382 18.8451 5.46077 18.6521L0.736964 13.8031C0.411643 13.4771 0.181557 13.0613 0.0734355 12.6042C-0.0346857 12.147 -0.0164031 11.6672 0.126159 11.2204C0.268722 10.7737 0.529712 10.3783 0.878807 10.0804C1.2279 9.78239 1.65077 9.594 2.09829 9.53709L8.64627 8.49902C8.91926 8.46025 9.17887 8.35171 9.40209 8.18304C9.62531 8.01436 9.80524 7.79076 9.92592 7.53206L12.8664 1.38899C13.0629 0.972062 13.3673 0.620949 13.745 0.375419C14.1228 0.12989 14.5588 -0.000244141 15.0037 -0.000244141C15.4486 -0.000244141 15.8846 0.12989 16.2623 0.375419C16.64 0.620949 16.9444 0.972062 17.1409 1.38899L20.095 7.61738C20.2157 7.87608 20.3956 8.09968 20.6189 8.26836C20.8421 8.43703 21.1017 8.54557 21.3747 8.58434L27.9635 9.59397C28.4037 9.65808 28.8176 9.85101 29.1572 10.1505C29.4969 10.4499 29.7485 10.8436 29.883 11.2862C30.0246 11.7272 30.0422 12.2014 29.9337 12.6526C29.8251 13.1038 29.5949 13.5129 29.2704 13.8315L24.5193 18.6521C24.3237 18.8558 24.1773 19.1052 24.0921 19.3796C24.0069 19.6541 23.9853 19.9457 24.0293 20.2306L25.1592 27.0846C25.2366 27.5426 25.1882 28.0141 25.0195 28.4445C24.8508 28.8749 24.5689 29.2465 24.2062 29.5163C23.8493 29.794 23.4237 29.959 22.9797 29.9918C22.5358 30.0245 22.0921 29.9237 21.7014 29.7011L15.8068 26.4732C15.5632 26.3399 15.2923 26.2702 15.0173 26.2702C14.7423 26.2702 14.4713 26.3399 14.2277 26.4732L8.31955 29.7011C7.98244 29.8974 7.60282 30.0002 7.21688 29.9998ZM14.9901 2.09999C14.9271 2.09949 14.8653 2.11802 14.8122 2.15334C14.759 2.18866 14.7168 2.23927 14.6906 2.29907L11.7501 8.49902C11.4879 9.07576 11.0935 9.57605 10.602 9.95555C10.1105 10.3351 9.53691 10.5821 8.93215 10.6747L2.35694 11.6701C2.29266 11.6792 2.232 11.7065 2.18158 11.7491C2.13117 11.7918 2.09293 11.848 2.07106 11.9118C2.05313 11.9767 2.05253 12.0454 2.06932 12.1106C2.08612 12.1758 2.11968 12.2349 2.16636 12.2816L6.931 17.1306C7.36553 17.572 7.69055 18.1173 7.87794 18.7194C8.06533 19.3215 8.10944 19.9622 8.00645 20.5861L6.82209 27.4401C6.8078 27.5076 6.81264 27.578 6.83603 27.6426C6.85941 27.7073 6.90033 27.7634 6.95377 27.8041C7.00721 27.8449 7.07086 27.8684 7.13693 27.872C7.203 27.8755 7.26863 27.8589 7.32578 27.8241L13.2067 24.5819C13.7444 24.2879 14.3423 24.1343 14.9492 24.1343C15.5561 24.1343 16.154 24.2879 16.6917 24.5819L22.5863 27.8241C22.6396 27.858 22.7008 27.8759 22.7632 27.8759C22.8257 27.8759 22.8869 27.858 22.9402 27.8241C22.9958 27.7873 23.0388 27.7331 23.0633 27.6693C23.0877 27.6055 23.0923 27.5353 23.0763 27.4686L21.96 20.6145C21.865 19.9755 21.9248 19.3218 22.1341 18.7131C22.3434 18.1045 22.6954 17.5604 23.158 17.1306L27.9227 12.2816C27.9696 12.2353 28.003 12.1761 28.019 12.1108C28.035 12.0455 28.0329 11.9768 28.0129 11.9127C27.9929 11.8486 27.9559 11.7918 27.9062 11.7488C27.8565 11.7059 27.7961 11.6786 27.7321 11.6701L21.1432 10.6747C20.5264 10.5932 19.9389 10.3513 19.4347 9.9712C18.9305 9.59109 18.5256 9.08491 18.2572 8.49902L15.3168 2.29907C15.2873 2.23585 15.2405 2.18319 15.1823 2.14776C15.1242 2.11232 15.0573 2.0957 14.9901 2.09999Z" fill="white"/>
<path d="M7.21688 29.9998C6.72688 29.9853 6.25244 29.8168 5.85555 29.5163C5.49535 29.2442 5.21522 28.8723 5.04682 28.4425C4.87842 28.0128 4.82847 27.5425 4.90262 27.0846L6.03252 20.2306C6.0699 19.9386 6.03721 19.6415 5.93741 19.366C5.83761 19.0904 5.67382 18.8451 5.46077 18.6521L0.736964 13.8031C0.411643 13.4771 0.181557 13.0613 0.0734355 12.6042C-0.0346857 12.147 -0.0164031 11.6672 0.126159 11.2204C0.268722 10.7737 0.529712 10.3783 0.878807 10.0804C1.2279 9.78239 1.65077 9.594 2.09829 9.53709L8.64627 8.49902C8.91926 8.46025 9.17887 8.35171 9.40209 8.18304C9.62531 8.01436 9.80524 7.79076 9.92592 7.53206L12.8664 1.38899C13.0629 0.972062 13.3673 0.620949 13.745 0.375419C14.1228 0.12989 14.5588 -0.000244141 15.0037 -0.000244141C15.4486 -0.000244141 15.8846 0.12989 16.2623 0.375419C16.64 0.620949 16.9444 0.972062 17.1409 1.38899L20.095 7.61738C20.2157 7.87608 20.3956 8.09968 20.6189 8.26836C20.8421 8.43703 21.1017 8.54557 21.3747 8.58434L27.9635 9.59397C28.4037 9.65808 28.8176 9.85101 29.1572 10.1505C29.4969 10.4499 29.7485 10.8436 29.883 11.2862C30.0246 11.7272 30.0422 12.2014 29.9337 12.6526C29.8251 13.1038 29.5949 13.5129 29.2704 13.8315L24.5193 18.6521C24.3237 18.8558 24.1773 19.1052 24.0921 19.3796C24.0069 19.6541 23.9853 19.9457 24.0293 20.2306L25.1592 27.0846C25.2366 27.5426 25.1882 28.0141 25.0195 28.4445C24.8508 28.8749 24.5689 29.2465 24.2062 29.5163C23.8493 29.794 23.4237 29.959 22.9797 29.9918C22.5358 30.0245 22.0921 29.9237 21.7014 29.7011L15.8068 26.4732C15.5632 26.3399 15.2923 26.2702 15.0173 26.2702C14.7423 26.2702 14.4713 26.3399 14.2277 26.4732L8.31955 29.7011C7.98244 29.8974 7.60282 30.0002 7.21688 29.9998ZM14.9901 2.09999C14.9271 2.09949 14.8653 2.11802 14.8122 2.15334C14.759 2.18866 14.7168 2.23927 14.6906 2.29907L11.7501 8.49902C11.4879 9.07576 11.0935 9.57605 10.602 9.95555C10.1105 10.3351 9.53691 10.5821 8.93215 10.6747L2.35694 11.6701C2.29266 11.6792 2.232 11.7065 2.18158 11.7491C2.13117 11.7918 2.09293 11.848 2.07106 11.9118C2.05313 11.9767 2.05253 12.0454 2.06932 12.1106C2.08612 12.1758 2.11968 12.2349 2.16636 12.2816L6.931 17.1306C7.36553 17.572 7.69055 18.1173 7.87794 18.7194C8.06533 19.3215 8.10944 19.9622 8.00645 20.5861L6.82209 27.4401C6.8078 27.5076 6.81264 27.578 6.83603 27.6426C6.85941 27.7073 6.90033 27.7634 6.95377 27.8041C7.00721 27.8449 7.07086 27.8684 7.13693 27.872C7.203 27.8755 7.26863 27.8589 7.32578 27.8241L13.2067 24.5819C13.7444 24.2879 14.3423 24.1343 14.9492 24.1343C15.5561 24.1343 16.154 24.2879 16.6917 24.5819L22.5863 27.8241C22.6396 27.858 22.7008 27.8759 22.7632 27.8759C22.8257 27.8759 22.8869 27.858 22.9402 27.8241C22.9958 27.7873 23.0388 27.7331 23.0633 27.6693C23.0877 27.6055 23.0923 27.5353 23.0763 27.4686L21.96 20.6145C21.865 19.9755 21.9248 19.3218 22.1341 18.7131C22.3434 18.1045 22.6954 17.5604 23.158 17.1306L27.9227 12.2816C27.9696 12.2353 28.003 12.1761 28.019 12.1108C28.035 12.0455 28.0329 11.9768 28.0129 11.9127C27.9929 11.8486 27.9559 11.7918 27.9062 11.7488C27.8565 11.7059 27.7961 11.6786 27.7321 11.6701L21.1432 10.6747C20.5264 10.5932 19.9389 10.3513 19.4347 9.9712C18.9305 9.59109 18.5256 9.08491 18.2572 8.49902L15.3168 2.29907C15.2873 2.23585 15.2405 2.18319 15.1823 2.14776C15.1242 2.11232 15.0573 2.0957 14.9901 2.09999Z" fill="#145FA0" fill-opacity="0.5"/>
</svg>
