<svg width="30" height="30" viewBox="0 0 30 30" fill="none" xmlns="http://www.w3.org/2000/svg">
<path fill-rule="evenodd" clip-rule="evenodd" d="M13.8083 0.0212886C10.0924 0.39405 6.9108 1.86955 4.39325 4.38752C0.730267 8.05112 -0.767568 13.2709 0.376634 18.3853C0.97707 21.0694 2.39741 23.6228 4.40328 25.6242C6.74003 27.9557 9.53412 29.3544 12.9283 29.8916C13.8442 30.0366 16.1165 30.036 17.0935 29.8905C20.3989 29.3981 23.2982 27.9471 25.6235 25.6214C27.9919 23.2526 29.4393 20.3103 29.9214 16.8846C30.0383 16.0535 30.0216 13.7416 29.8927 12.924C29.3578 9.53084 27.952 6.72137 25.6235 4.39256C23.337 2.10565 20.5394 0.682378 17.2988 0.157356C16.5929 0.0429983 14.4316 -0.0412587 13.8083 0.0212886ZM22.0526 9.11114C22.2982 9.23817 22.4275 9.5167 22.4198 9.90225C22.4123 10.2841 19.9239 22.0282 19.8001 22.2661C19.6409 22.5723 19.4365 22.7123 19.1554 22.7081C19.0137 22.7059 18.816 22.6619 18.716 22.6101C18.6159 22.5583 17.6974 21.8978 16.6748 21.1422L14.8157 19.7684L13.7945 20.7468C12.7322 21.7647 12.6046 21.8664 12.3857 21.8699C12.2217 21.8724 12.2223 21.9504 12.3715 19.9063C12.4352 19.035 12.4874 18.2647 12.4878 18.1946C12.4882 18.1008 13.426 17.2199 16.0402 14.8581C17.9937 13.0932 19.5823 11.6191 19.5702 11.5825C19.5344 11.4736 19.315 11.4723 19.1068 11.5798C18.9997 11.635 17.0253 12.8683 14.7193 14.3206C12.4132 15.7728 10.4829 16.9724 10.4295 16.9864C10.3167 17.0159 6.75821 15.9243 6.42881 15.7591C6.0144 15.5513 6.00243 15.2308 6.39783 14.9293C6.65185 14.7355 21.4291 9.02899 21.687 9.02506C21.7934 9.02348 21.958 9.0622 22.0526 9.11114Z" fill="#039BE5"/>
</svg>
