<svg width="30" height="30" viewBox="0 0 30 30" fill="none" xmlns="http://www.w3.org/2000/svg">
<path d="M9.43467 27.5C20.756 27.5 26.9472 17.8828 26.9472 9.54302C26.9472 9.26989 26.9418 8.998 26.9298 8.72724C28.1344 7.8335 29.174 6.72684 30 5.45914C28.8972 5.96185 27.7104 6.30022 26.4655 6.45278C27.7361 5.67137 28.7117 4.43546 29.172 2.96203C27.9637 3.69702 26.6419 4.21512 25.2636 4.49399C24.1404 3.26727 22.5415 2.5 20.7708 2.5C17.3718 2.5 14.6154 5.3264 14.6154 8.81033C14.6154 9.30561 14.6695 9.78736 14.7751 10.2494C9.65957 9.98545 5.12349 7.47409 2.08769 3.65539C1.54092 4.61847 1.25331 5.71312 1.25424 6.82749C1.25424 9.01709 2.34087 10.9501 3.99327 12.0809C3.01587 12.0503 2.0599 11.7796 1.20572 11.2915C1.20482 11.3181 1.20482 11.3439 1.20482 11.3722C1.20482 14.4287 3.32643 16.9806 6.14277 17.5588C5.61381 17.7066 5.068 17.7813 4.51977 17.781C4.13153 17.7807 3.74418 17.7426 3.36297 17.6671C4.14659 20.1748 6.41881 21.9996 9.11273 22.0506C7.00611 23.7437 4.35236 24.7521 1.46817 24.7521C0.971967 24.7521 0.481806 24.7232 0 24.6647C2.72402 26.4551 5.95854 27.4997 9.43497 27.4997" fill="#1DA1F2"/>
</svg>
