<svg width="20" height="25" viewBox="0 0 20 25" fill="none" xmlns="http://www.w3.org/2000/svg">
<path d="M9.9993 12.4996C13.3276 12.4996 16.0344 9.80869 16.0344 6.4998C16.0344 3.19091 13.3276 0.5 9.9993 0.5C6.67096 0.5 3.96423 3.19091 3.96423 6.4998C3.96423 9.80869 6.67096 12.4996 9.9993 12.4996ZM9.9993 2.49993C12.2182 2.49993 14.0227 4.29388 14.0227 6.4998C14.0227 8.70573 12.2182 10.4997 9.9993 10.4997C7.78041 10.4997 5.97592 8.70573 5.97592 6.4998C5.97592 4.29388 7.78041 2.49993 9.9993 2.49993ZM19.9934 23.3892C20.0547 23.9382 19.6876 24.4992 18.9916 24.4992C18.4856 24.4992 18.0501 24.1212 17.9927 23.6092C17.5421 19.5564 14.1052 16.4995 9.9993 16.4995C5.89344 16.4995 2.45647 19.5564 2.00586 23.6092C1.9445 24.1582 1.44359 24.5562 0.895403 24.4932C0.343194 24.4322 -0.0551201 23.9382 0.00623643 23.3892C0.570515 18.3214 4.86748 14.4995 10.0003 14.4995C15.1331 14.4995 19.4291 18.3214 19.9934 23.3892Z" fill="#10509A"/>
</svg>
