<svg width="30" height="30" viewBox="0 0 30 30" fill="none" xmlns="http://www.w3.org/2000/svg">
<path fill-rule="evenodd" clip-rule="evenodd" d="M13.4425 0.041505C12.7171 0.119696 11.3283 0.404634 10.645 0.615491C6.77674 1.80902 3.58214 4.44719 1.68026 8.01867C1.13256 9.04718 0.616152 10.4578 0.326481 11.7169C0.0650497 12.8532 0 13.5079 0 15.0042C0 16.5753 0.0666936 17.1904 0.378733 18.4969C1.72012 24.1138 6.2561 28.5355 11.8725 29.7012C13.1291 29.962 13.5555 30.0024 15.0276 29.9999C17.1934 29.9964 18.5675 29.7345 20.7175 28.9156C21.2988 28.6943 22.4884 28.062 23.1798 27.6072C26.8666 25.1812 29.1889 21.5427 29.8918 17.0911C30.0361 16.1776 30.0361 13.8307 29.8918 12.9172C29.3556 9.52143 27.953 6.72235 25.6123 4.37704C23.3249 2.08515 20.4485 0.635626 17.1705 0.122983C16.4294 0.00710573 14.2116 -0.0413819 13.4425 0.041505ZM17.8019 7.21744C18.8298 7.48495 19.6967 7.96184 20.4199 8.65758C21.125 9.33593 21.6042 10.1268 21.9078 11.113C22.0645 11.6217 22.067 11.6557 22.0885 13.5773C22.1069 15.2049 22.0945 15.6106 22.0138 16.0413C21.6902 17.7679 20.5043 19.2887 18.9056 20.0273C17.9699 20.4596 17.819 20.4822 15.7028 20.5065L13.7947 20.5284L12.5797 21.7396C11.4102 22.9054 11.3592 22.9482 11.2147 22.8824L11.0647 22.814L11.0622 21.4186L11.0597 20.0232L10.5528 19.7297C9.57053 19.1608 8.67334 18.097 8.24987 16.9991C7.92526 16.1574 7.88364 15.741 7.90794 13.5773C7.92949 11.6557 7.93196 11.6217 8.08865 11.113C8.27758 10.4993 8.57699 9.88339 8.92449 9.39352C9.27839 8.89461 10.0207 8.21784 10.5857 7.87896C11.1408 7.546 12.036 7.22296 12.6218 7.14413C12.8471 7.11384 14.0222 7.0964 15.2331 7.10544C17.0382 7.11894 17.5008 7.13914 17.8019 7.21744ZM15.3645 9.28692C15.2353 9.34527 15.1649 9.53481 15.2283 9.65345C15.2748 9.74033 15.3841 9.7695 15.7753 9.79956C17.0471 9.8973 18.0347 10.5234 18.5351 11.5491C18.8125 12.1177 18.8901 12.5366 18.8647 13.3268L18.8437 13.9769H19.0492C19.2434 13.9769 19.2584 13.9624 19.3233 13.7127C19.4193 13.3433 19.4151 12.6421 19.314 12.1647C19.0495 10.9166 17.9757 9.77719 16.715 9.40685C16.3874 9.31057 15.4888 9.2308 15.3645 9.28692ZM11.916 10.2151C11.8191 10.2583 11.5114 10.5285 11.2321 10.8155C10.65 11.4139 10.5579 11.6251 10.6188 12.2227C10.7404 13.4154 11.6915 14.9931 13.1298 16.3882C14.5373 17.7535 15.9387 18.5295 17.0034 18.5331C17.5261 18.5349 17.7363 18.4191 18.3274 17.8034C19.1151 16.9831 19.0885 16.7736 18.0669 15.7502C17.6869 15.3695 17.3363 15.0331 17.2879 15.0026C17.1384 14.9086 16.7404 14.9397 16.5417 15.0608C16.4381 15.124 16.3019 15.2758 16.2392 15.3981C15.8238 16.2083 15.0373 16.1013 14.0257 15.0971C13.6623 14.7363 13.4945 14.514 13.3256 14.1696C12.9842 13.4729 13.0773 13.1396 13.71 12.7953C14.0254 12.6237 14.1763 12.3991 14.1763 12.1011C14.1763 11.782 14.0719 11.6329 13.3438 10.9127C12.5444 10.1218 12.3444 10.0241 11.916 10.2151ZM15.4238 10.3495C15.2504 10.3829 15.1513 10.5661 15.2285 10.7104C15.2752 10.7975 15.3797 10.8256 15.753 10.8512C16.3983 10.8954 16.8419 11.101 17.2554 11.5476C17.6495 11.9732 17.8163 12.3873 17.8163 12.9401C17.8163 13.3603 17.8741 13.4779 18.0805 13.4779C18.2817 13.4779 18.3447 13.3591 18.3447 12.9796C18.3447 11.6665 17.4132 10.577 16.1137 10.3698C15.7227 10.3074 15.6529 10.3054 15.4238 10.3495ZM15.5354 11.4733C15.381 11.6277 15.4317 11.8254 15.6364 11.8669C16.1078 11.9627 16.2759 12.0395 16.4779 12.2512C16.6177 12.3978 16.7082 12.558 16.7312 12.6997C16.7898 13.0603 16.8613 13.1844 17.0107 13.1844C17.3191 13.1844 17.378 12.8227 17.1495 12.332C16.9055 11.8082 16.4796 11.4894 15.898 11.3954C15.6975 11.363 15.6315 11.3772 15.5354 11.4733Z" fill="#665CAC"/>
</svg>
