<svg width="34" height="34" viewBox="0 0 34 34" fill="none" xmlns="http://www.w3.org/2000/svg">
<g filter="url(#filter0_f_408_30005)">
<g filter="url(#filter1_d_408_30005)">
<path d="M2.12542 16.9188C2.12445 19.5295 2.81209 22.078 4.11916 24.3244L2 32L9.9185 29.9403C12.1002 31.1206 14.5566 31.7426 17.0563 31.7435H17.0628C25.2951 31.7435 31.9965 25.0977 32 16.9308C32.0013 12.9726 30.449 9.2509 27.629 6.45109C24.8086 3.65134 21.0583 2.10869 17.0628 2.10694C8.82916 2.10694 2.12869 8.75169 2.12542 16.9188Z" fill="white"/>
</g>
<path d="M2.12542 16.9188C2.12445 19.5295 2.81209 22.078 4.11916 24.3244L2 32L9.9185 29.9403C12.1002 31.1206 14.5566 31.7426 17.0563 31.7435H17.0628C25.2951 31.7435 31.9965 25.0977 32 16.9308C32.0013 12.9726 30.449 9.2509 27.629 6.45109C24.8086 3.65134 21.0583 2.10869 17.0628 2.10694C8.82916 2.10694 2.12869 8.75169 2.12542 16.9188Z" fill="white" fill-opacity="0.2"/>
</g>
<path d="M2.66166 16.7646C2.66091 19.2755 3.32402 21.7272 4.58504 23.8883L2.54102 31.2722L10.1786 29.2909C12.2829 30.4255 14.652 31.0243 17.0632 31.0252H17.0696C25.0097 31.0252 31.4731 24.6326 31.4764 16.7757C31.478 12.9683 29.9807 9.38832 27.2604 6.69497C24.5405 4.00162 20.9231 2.51758 17.0691 2.51588C9.12803 2.51588 2.66488 8.90785 2.66166 16.7646Z" fill="url(#paint0_linear_408_30005)"/>
<path d="M2.1468 16.7596C2.14583 19.3611 2.83288 21.9006 4.13877 24.1391L2.02148 31.7876L9.93306 29.7352C12.1128 30.9113 14.567 31.5311 17.0646 31.532H17.0711C25.2961 31.532 31.9916 24.9097 31.9951 16.7716C31.9965 12.8273 30.4455 9.1188 27.628 6.32882C24.8101 3.53894 21.0631 2.00181 17.0711 2.00001C8.84469 2.00001 2.15007 8.62129 2.14674 16.7596H2.1468ZM6.85819 23.7537L6.56286 23.2896C5.32111 21.3362 4.66556 19.0787 4.66664 16.7606C4.66927 9.99627 10.2335 4.49313 17.0758 4.49313C20.3892 4.49446 23.5033 5.77221 25.8455 8.09108C28.1875 10.4098 29.4763 13.4923 29.4753 16.7706C29.4724 23.5352 23.9079 29.0392 17.0711 29.0392H17.0663C14.8401 29.038 12.6569 28.4467 10.7528 27.3287L10.2996 27.063L5.60474 28.2808L6.85819 23.7537Z" fill="url(#paint1_linear_408_30005)"/>
<path fill-rule="evenodd" clip-rule="evenodd" d="M13.3416 10.5893C13.0623 9.97503 12.7683 9.96266 12.5025 9.95188C12.2852 9.94269 12.0363 9.94328 11.7879 9.94328C11.5393 9.94328 11.1352 10.0357 10.7936 10.4048C10.4517 10.774 9.48828 11.6665 9.48828 13.4816C9.48828 15.2969 10.8247 17.0508 11.0109 17.2972C11.1974 17.5432 13.5907 21.3871 17.3809 22.8659C20.531 24.0949 21.172 23.8504 21.8557 23.7889C22.5394 23.7274 24.0619 22.8966 24.3727 22.0352C24.6835 21.1738 24.6835 20.4355 24.5903 20.2811C24.497 20.1274 24.2484 20.0351 23.8755 19.8506C23.5025 19.6661 21.6692 18.7735 21.3273 18.6505C20.9855 18.5275 20.7368 18.466 20.4882 18.8354C20.2396 19.2044 19.5255 20.0351 19.3078 20.2812C19.0903 20.5277 18.8728 20.5584 18.4998 20.3739C18.1268 20.1889 16.9258 19.7997 15.5011 18.5429C14.3925 17.5651 13.6442 16.3575 13.4265 15.9882C13.209 15.6191 13.4033 15.4193 13.5903 15.2354C13.7577 15.0701 13.9633 14.8047 14.1497 14.5893C14.3358 14.3739 14.398 14.2201 14.5223 13.9741C14.6466 13.7277 14.5844 13.5123 14.4912 13.3278C14.398 13.1433 13.6733 11.3188 13.3416 10.5893Z" fill="white"/>
<defs>
<filter id="filter0_f_408_30005" x="1.78762" y="1.89455" width="30.4248" height="30.3178" filterUnits="userSpaceOnUse" color-interpolation-filters="sRGB">
<feFlood flood-opacity="0" result="BackgroundImageFix"/>
<feBlend mode="normal" in="SourceGraphic" in2="BackgroundImageFix" result="shape"/>
<feGaussianBlur stdDeviation="0.106192" result="effect1_foregroundBlur_408_30005"/>
</filter>
<filter id="filter1_d_408_30005" x="0.672599" y="0.567149" width="32.6548" height="32.5479" filterUnits="userSpaceOnUse" color-interpolation-filters="sRGB">
<feFlood flood-opacity="0" result="BackgroundImageFix"/>
<feColorMatrix in="SourceAlpha" type="matrix" values="0 0 0 0 0 0 0 0 0 0 0 0 0 0 0 0 0 0 127 0" result="hardAlpha"/>
<feOffset dy="-0.212384"/>
<feGaussianBlur stdDeviation="0.6637"/>
<feComposite in2="hardAlpha" operator="out"/>
<feColorMatrix type="matrix" values="0 0 0 0 0 0 0 0 0 0 0 0 0 0 0 0 0 0 0.21 0"/>
<feBlend mode="normal" in2="BackgroundImageFix" result="effect1_dropShadow_408_30005"/>
<feBlend mode="normal" in="SourceGraphic" in2="effect1_dropShadow_408_30005" result="shape"/>
</filter>
<linearGradient id="paint0_linear_408_30005" x1="17.0086" y1="31.2722" x2="17.0086" y2="2.51586" gradientUnits="userSpaceOnUse">
<stop stop-color="#20B038"/>
<stop offset="1" stop-color="#60D66A"/>
</linearGradient>
<linearGradient id="paint1_linear_408_30005" x1="17.0084" y1="31.7876" x2="17.0084" y2="2.00002" gradientUnits="userSpaceOnUse">
<stop stop-color="#F9F9F9"/>
<stop offset="1" stop-color="white"/>
</linearGradient>
</defs>
</svg>
