<svg width="658" height="57" viewBox="0 0 658 57" fill="none" xmlns="http://www.w3.org/2000/svg">
<path d="M154.909 0.656006V5.953H143.011V11.025H154.199V16.315H143.011V22.547H155.318V27.845H136V0.656006H154.909Z" fill="#145FA0"/>
<path d="M176.596 0.656006V22.547H188.903V27.845H169.585V0.656006H176.596Z" fill="#145FA0"/>
<path d="M221.984 0.656006V5.953H210.086V11.025H221.281V16.315H210.086V22.547H222.394V27.845H203.082V0.656006H221.984Z" fill="#145FA0"/>
<path d="M249.828 28.363C240.728 28.363 235.097 22.923 235.097 14.267C235.097 5.61203 240.769 0.171021 250.203 0.171021C253.821 0.171021 257.139 0.839998 260.088 2.185V7.81598C257.064 6.10298 254.081 5.24298 251.063 5.24298C245.466 5.24298 242.333 8.48503 242.333 14.267C242.333 20.049 245.391 23.292 250.722 23.292C252.176 23.292 253.439 23.107 254.449 22.732V17.435H250.155V12.738H261.077V25.824C257.617 27.51 253.848 28.363 249.821 28.363" fill="#145FA0"/>
<path d="M280.921 22.882L279.201 27.845H272.156L282.225 0.656006H290.58L300.649 27.845H293.598L291.884 22.882H280.921ZM290.13 17.851L286.403 7.03802L282.676 17.851H290.13Z" fill="#145FA0"/>
<path d="M318.582 0.656006L328.466 19.305V0.656006H335.101V27.845H327.278L317.394 9.19501V27.845H310.752V0.656006H318.582Z" fill="#145FA0"/>
<path d="M370.27 0.656006V5.953H361.246V27.845H354.235V5.953H345.211V0.656006H370.27Z" fill="#145FA0"/>
<path d="M144.28 48.774H149.1V54.965C147.332 55.75 145.577 56.14 143.837 56.14C141.454 56.14 139.556 55.436 138.137 54.023C136.717 52.61 136 50.87 136 48.801C136 46.624 136.737 44.808 138.212 43.354C139.686 41.907 141.529 41.183 143.755 41.183C144.56 41.183 145.332 41.272 146.062 41.449C146.785 41.627 147.707 41.955 148.82 42.426V44.562C147.106 43.552 145.407 43.047 143.721 43.047C142.15 43.047 140.826 43.586 139.748 44.671C138.669 45.764 138.13 47.095 138.13 48.678C138.13 50.337 138.669 51.696 139.748 52.747C140.826 53.805 142.212 54.331 143.905 54.331C144.724 54.331 145.714 54.133 146.854 53.75L147.052 53.689V50.651H144.287V48.788L144.28 48.774Z" fill="#145FA0"/>
<path d="M171.517 48.665C171.517 49.593 170.78 50.344 169.865 50.344C168.95 50.344 168.213 49.593 168.213 48.665C168.213 47.736 168.95 46.979 169.865 46.979C170.78 46.979 171.517 47.73 171.517 48.665Z" fill="#83B5E0"/>
<path d="M190.631 55.966V41.357H194.228C195.682 41.357 196.836 41.719 197.689 42.456C198.543 43.194 198.973 44.183 198.973 45.426C198.973 46.279 198.761 47.016 198.345 47.637C197.928 48.252 197.327 48.723 196.542 49.023C197 49.337 197.45 49.747 197.894 50.279C198.331 50.805 198.952 51.726 199.744 53.051C200.242 53.877 200.645 54.505 200.945 54.921L201.703 55.966H199.259L198.638 55.003C198.638 55.003 198.577 54.907 198.515 54.826L198.112 54.252L197.478 53.18L196.788 52.04C196.365 51.44 195.976 50.962 195.621 50.607C195.266 50.252 194.945 49.999 194.665 49.842C194.378 49.685 193.901 49.61 193.232 49.61H192.699V55.966H190.645H190.631ZM193.307 43.139H192.692V47.747H193.471C194.515 47.747 195.225 47.658 195.614 47.474C195.996 47.289 196.303 47.023 196.515 46.654C196.734 46.286 196.836 45.876 196.836 45.405C196.836 44.934 196.72 44.532 196.474 44.156C196.235 43.787 195.894 43.521 195.457 43.371C195.02 43.214 194.297 43.146 193.293 43.146L193.307 43.139Z" fill="#145FA0"/>
<path d="M224.12 48.665C224.12 49.593 223.383 50.344 222.468 50.344C221.554 50.344 220.816 49.593 220.816 48.665C220.816 47.736 221.554 46.979 222.468 46.979C223.383 46.979 224.12 47.73 224.12 48.665Z" fill="#83B5E0"/>
<path d="M250.927 41.17C253.145 41.17 254.995 41.879 256.47 43.313C257.944 44.74 258.681 46.535 258.681 48.685C258.681 50.836 257.937 52.624 256.442 54.037C254.954 55.45 253.077 56.153 250.804 56.153C248.531 56.153 246.831 55.45 245.391 54.037C243.95 52.624 243.233 50.856 243.233 48.733C243.233 46.61 243.957 44.747 245.411 43.313C246.865 41.879 248.701 41.17 250.92 41.17H250.927ZM251.015 43.156C249.37 43.156 248.019 43.675 246.961 44.726C245.902 45.77 245.37 47.108 245.37 48.733C245.37 50.358 245.902 51.621 246.961 52.665C248.019 53.709 249.357 54.235 250.947 54.235C252.538 54.235 253.889 53.703 254.961 52.631C256.033 51.566 256.572 50.242 256.572 48.651C256.572 47.061 256.033 45.798 254.961 44.747C253.889 43.688 252.572 43.163 251.015 43.163V43.156Z" fill="#145FA0"/>
<path d="M281.099 48.665C281.099 49.593 280.362 50.344 279.447 50.344C278.532 50.344 277.795 49.593 277.795 48.665C277.795 47.736 278.532 46.979 279.447 46.979C280.362 46.979 281.099 47.73 281.099 48.665Z" fill="#83B5E0"/>
<path d="M310.507 41.275H312.575V49.569C312.575 50.689 312.493 51.535 312.336 52.115C312.173 52.689 311.975 53.16 311.736 53.542C311.497 53.924 311.21 54.266 310.869 54.559C309.729 55.556 308.241 56.054 306.404 56.054C304.568 56.054 303.032 55.563 301.906 54.566C301.558 54.259 301.271 53.918 301.032 53.535C300.793 53.153 300.595 52.689 300.445 52.136C300.288 51.59 300.213 50.723 300.213 49.542V41.269H302.281V49.562C302.281 50.935 302.431 51.89 302.745 52.429C303.053 52.969 303.524 53.399 304.152 53.726C304.78 54.047 305.524 54.211 306.384 54.211C307.606 54.211 308.602 53.883 309.367 53.235C309.776 52.887 310.063 52.477 310.248 52.006C310.418 51.528 310.514 50.716 310.514 49.569V41.275H310.507Z" fill="#145FA0"/>
<path d="M334.999 48.665C334.999 49.593 334.262 50.344 333.34 50.344C332.419 50.344 331.688 49.593 331.688 48.665C331.688 47.736 332.426 46.979 333.34 46.979C334.255 46.979 334.999 47.73 334.999 48.665Z" fill="#83B5E0"/>
<path d="M354.113 55.976V41.347H358.673C360.045 41.347 361.138 41.722 361.95 42.473C362.762 43.224 363.172 44.241 363.172 45.504C363.172 46.358 362.96 47.108 362.544 47.764C362.12 48.419 361.554 48.897 360.824 49.19C360.1 49.484 359.055 49.634 357.697 49.634H356.182V55.969H354.113V55.976ZM358.311 43.211H356.182V47.784H358.434C359.274 47.784 359.916 47.579 360.366 47.177C360.824 46.781 361.049 46.207 361.049 45.456C361.049 43.962 360.141 43.211 358.311 43.211Z" fill="#145FA0"/>
<path d="M397.683 0V56" stroke="#83B5E0" stroke-width="1.36525"/>
<path d="M431.007 23.267V8.81097H435.584C436.962 8.81097 438.061 9.183 438.88 9.927C439.7 10.671 440.11 11.67 440.11 12.924C440.11 13.764 439.9 14.508 439.48 15.156C439.06 15.803 438.484 16.275 437.754 16.571C437.024 16.86 435.977 17.005 434.613 17.005H433.084V23.267H431.007ZM435.223 10.65H433.084V15.166H435.347C436.187 15.166 436.835 14.97 437.289 14.577C437.744 14.177 437.971 13.609 437.971 12.872C437.971 11.391 437.055 10.65 435.223 10.65ZM446.837 23.267V8.83197H450.453C451.914 8.83197 453.071 9.19399 453.925 9.91699C454.786 10.64 455.217 11.618 455.217 12.851C455.217 13.692 455.007 14.418 454.587 15.032C454.166 15.645 453.564 16.103 452.778 16.406C453.24 16.709 453.691 17.122 454.132 17.646C454.573 18.169 455.193 19.082 455.992 20.384C456.495 21.204 456.898 21.82 457.201 22.233L457.965 23.267H455.506L454.876 22.316C454.855 22.282 454.814 22.223 454.752 22.14L454.349 21.572L453.708 20.518L453.016 19.392C452.589 18.8 452.196 18.328 451.838 17.976C451.487 17.625 451.166 17.374 450.877 17.222C450.595 17.064 450.116 16.984 449.441 16.984H448.904V23.267H446.837ZM449.524 10.588H448.904V15.145H449.689C450.736 15.145 451.452 15.056 451.838 14.877C452.231 14.697 452.534 14.429 452.747 14.071C452.968 13.706 453.078 13.292 453.078 12.831C453.078 12.376 452.957 11.966 452.716 11.601C452.475 11.229 452.134 10.967 451.693 10.816C451.259 10.664 450.536 10.588 449.524 10.588ZM471.522 8.625C473.754 8.625 475.611 9.33098 477.092 10.743C478.58 12.156 479.324 13.926 479.324 16.054C479.324 18.183 478.573 19.946 477.071 21.345C475.576 22.736 473.689 23.432 471.409 23.432C469.232 23.432 467.417 22.736 465.963 21.345C464.517 19.946 463.793 18.197 463.793 16.096C463.793 13.94 464.524 12.156 465.984 10.743C467.444 9.33098 469.29 8.625 471.522 8.625ZM471.605 10.588C469.952 10.588 468.591 11.105 467.524 12.138C466.463 13.172 465.932 14.491 465.932 16.096C465.932 17.653 466.466 18.948 467.534 19.981C468.602 21.014 469.938 21.531 471.543 21.531C473.155 21.531 474.498 21.004 475.573 19.95C476.654 18.896 477.195 17.584 477.195 16.013C477.195 14.484 476.654 13.199 475.573 12.159C474.498 11.112 473.176 10.588 471.605 10.588ZM486.743 8.83197H494.441V10.671H488.809V14.701H494.441V16.54H488.809V23.267H486.743V8.83197ZM501.529 8.83197H509.713V10.671H503.596V15.073H509.506V16.922H503.596V21.407H509.909V23.246H501.529V8.83197ZM520.552 17.212L518.982 16.261C517.997 15.662 517.294 15.073 516.874 14.494C516.461 13.909 516.254 13.237 516.254 12.479C516.254 11.343 516.647 10.42 517.432 9.71002C518.224 9.00102 519.25 8.646 520.511 8.646C521.717 8.646 522.822 8.983 523.828 9.659V12.004C522.788 11.005 521.668 10.506 520.47 10.506C519.795 10.506 519.24 10.664 518.806 10.981C518.372 11.291 518.155 11.691 518.155 12.18C518.155 12.614 518.314 13.02 518.63 13.399C518.947 13.778 519.461 14.174 520.17 14.587L521.751 15.517C523.514 16.564 524.396 17.901 524.396 19.526C524.396 20.684 524.007 21.624 523.229 22.347C522.457 23.07 521.451 23.432 520.211 23.432C518.785 23.432 517.487 22.995 516.316 22.12V19.495C517.432 20.907 518.723 21.613 520.191 21.613C520.838 21.613 521.376 21.434 521.803 21.076C522.237 20.711 522.454 20.256 522.454 19.712C522.454 18.831 521.82 17.997 520.552 17.212ZM535.112 17.212L533.541 16.261C532.556 15.662 531.853 15.073 531.433 14.494C531.02 13.909 530.813 13.237 530.813 12.479C530.813 11.343 531.206 10.42 531.991 9.71002C532.783 9.00102 533.81 8.646 535.07 8.646C536.276 8.646 537.381 8.983 538.387 9.659V12.004C537.347 11.005 536.228 10.506 535.029 10.506C534.354 10.506 533.799 10.664 533.365 10.981C532.931 11.291 532.714 11.691 532.714 12.18C532.714 12.614 532.873 13.02 533.19 13.399C533.507 13.778 534.02 14.174 534.729 14.587L536.31 15.517C538.074 16.564 538.955 17.901 538.955 19.526C538.955 20.684 538.566 21.624 537.788 22.347C537.016 23.07 536.011 23.432 534.771 23.432C533.345 23.432 532.046 22.995 530.875 22.12V19.495C531.991 20.907 533.283 21.613 534.75 21.613C535.397 21.613 535.935 21.434 536.362 21.076C536.796 20.711 537.013 20.256 537.013 19.712C537.013 18.831 536.379 17.997 535.112 17.212ZM546.116 8.83197H548.183V23.267H546.116V8.83197ZM563.341 8.625C565.573 8.625 567.43 9.33098 568.911 10.743C570.399 12.156 571.143 13.926 571.143 16.054C571.143 18.183 570.392 19.946 568.89 21.345C567.395 22.736 565.508 23.432 563.228 23.432C561.051 23.432 559.236 22.736 557.782 21.345C556.336 19.946 555.613 18.197 555.613 16.096C555.613 13.94 556.343 12.156 557.803 10.743C559.263 9.33098 561.11 8.625 563.341 8.625ZM563.424 10.588C561.771 10.588 560.41 11.105 559.343 12.138C558.282 13.172 557.751 14.491 557.751 16.096C557.751 17.653 558.285 18.948 559.353 19.981C560.421 21.014 561.757 21.531 563.362 21.531C564.974 21.531 566.317 21.004 567.392 19.95C568.473 18.896 569.014 17.584 569.014 16.013C569.014 14.484 568.473 13.199 567.392 12.159C566.317 11.112 564.995 10.588 563.424 10.588ZM590.011 8.83197H591.974V23.267H590.197L580.546 12.159V23.267H578.603V8.83197H580.277L590.011 20.033V8.83197ZM604.549 8.74902H606.006L612.464 23.267H610.346L608.424 18.989H602.286L600.468 23.267H598.35L604.549 8.74902ZM607.577 17.15L605.252 11.921L603.092 17.15H607.577ZM618.922 8.83197H620.989V21.386H627.488V23.267H618.922V8.83197ZM434.696 41.212L433.125 40.261C432.14 39.662 431.437 39.073 431.017 38.494C430.604 37.909 430.397 37.237 430.397 36.479C430.397 35.343 430.79 34.42 431.575 33.71C432.367 33.001 433.394 32.646 434.654 32.646C435.86 32.646 436.965 32.983 437.971 33.659V36.004C436.931 35.005 435.812 34.506 434.613 34.506C433.938 34.506 433.383 34.664 432.949 34.981C432.515 35.291 432.298 35.691 432.298 36.18C432.298 36.614 432.457 37.02 432.774 37.399C433.091 37.778 433.604 38.174 434.313 38.587L435.894 39.517C437.658 40.564 438.539 41.901 438.539 43.526C438.539 44.684 438.15 45.624 437.372 46.347C436.6 47.07 435.595 47.432 434.355 47.432C432.929 47.432 431.63 46.995 430.459 46.12V43.495C431.575 44.907 432.867 45.613 434.334 45.613C434.982 45.613 435.519 45.434 435.946 45.076C436.38 44.711 436.597 44.256 436.597 43.712C436.597 42.831 435.963 41.997 434.696 41.212ZM453.843 32.832H456.426L450.164 39.672L457.965 47.267H455.134L447.767 40.137V47.267H445.7V32.832H447.767V39.435L453.843 32.832ZM464.455 32.832H466.521V47.267H464.455V32.832ZM486.061 32.832H488.024V47.267H486.247L476.596 36.159V47.267H474.654V32.832H476.327L486.061 44.033V32.832ZM510.323 41.212L508.752 40.261C507.767 39.662 507.065 39.073 506.644 38.494C506.231 37.909 506.025 37.237 506.025 36.479C506.025 35.343 506.417 34.42 507.202 33.71C507.995 33.001 509.021 32.646 510.282 32.646C511.487 32.646 512.593 32.983 513.598 33.659V36.004C512.558 35.005 511.439 34.506 510.24 34.506C509.565 34.506 509.011 34.664 508.577 34.981C508.143 35.291 507.926 35.691 507.926 36.18C507.926 36.614 508.084 37.02 508.401 37.399C508.718 37.778 509.231 38.174 509.941 38.587L511.522 39.517C513.285 40.564 514.167 41.901 514.167 43.526C514.167 44.684 513.778 45.624 512.999 46.347C512.228 47.07 511.222 47.432 509.982 47.432C508.556 47.432 507.258 46.995 506.087 46.12V43.495C507.202 44.907 508.494 45.613 509.961 45.613C510.609 45.613 511.146 45.434 511.573 45.076C512.007 44.711 512.224 44.256 512.224 43.712C512.224 42.831 511.59 41.997 510.323 41.212ZM528.395 32.625C530.627 32.625 532.484 33.331 533.965 34.743C535.453 36.156 536.197 37.926 536.197 40.054C536.197 42.183 535.446 43.946 533.944 45.345C532.449 46.736 530.562 47.432 528.282 47.432C526.105 47.432 524.29 46.736 522.836 45.345C521.39 43.946 520.666 42.197 520.666 40.096C520.666 37.94 521.397 36.156 522.857 34.743C524.317 33.331 526.163 32.625 528.395 32.625ZM528.478 34.588C526.825 34.588 525.464 35.105 524.397 36.138C523.336 37.172 522.805 38.491 522.805 40.096C522.805 41.653 523.339 42.948 524.407 43.981C525.475 45.014 526.811 45.531 528.416 45.531C530.028 45.531 531.371 45.004 532.446 43.95C533.527 42.896 534.068 41.584 534.068 40.013C534.068 38.484 533.527 37.199 532.446 36.159C531.371 35.112 530.049 34.588 528.478 34.588ZM543.595 32.832H545.662V45.386H552.161V47.267H543.595V32.832ZM568.88 32.832H570.957V41.026C570.957 42.135 570.874 42.972 570.709 43.537C570.55 44.101 570.35 44.573 570.109 44.952C569.875 45.324 569.586 45.658 569.241 45.954C568.098 46.94 566.603 47.432 564.757 47.432C562.876 47.432 561.368 46.943 560.231 45.965C559.887 45.662 559.594 45.324 559.353 44.952C559.119 44.573 558.922 44.112 558.764 43.568C558.612 43.023 558.537 42.169 558.537 41.005V32.832H560.614V41.026C560.614 42.383 560.769 43.327 561.079 43.857C561.389 44.387 561.86 44.814 562.494 45.138C563.128 45.455 563.875 45.613 564.736 45.613C565.962 45.613 566.961 45.293 567.733 44.653C568.139 44.308 568.432 43.902 568.611 43.433C568.79 42.965 568.88 42.162 568.88 41.026V32.832ZM577.456 32.811H589.515V34.65H584.483V47.267H582.406V34.65H577.456V32.811ZM596.366 32.832H598.432V47.267H596.366V32.832ZM613.591 32.625C615.823 32.625 617.679 33.331 619.16 34.743C620.648 36.156 621.392 37.926 621.392 40.054C621.392 42.183 620.641 43.946 619.139 45.345C617.645 46.736 615.757 47.432 613.477 47.432C611.3 47.432 609.485 46.736 608.032 45.345C606.585 43.946 605.862 42.197 605.862 40.096C605.862 37.94 606.592 36.156 608.052 34.743C609.513 33.331 611.359 32.625 613.591 32.625ZM613.673 34.588C612.02 34.588 610.66 35.105 609.592 36.138C608.531 37.172 608.001 38.491 608.001 40.096C608.001 41.653 608.535 42.948 609.602 43.981C610.67 45.014 612.006 45.531 613.611 45.531C615.223 45.531 616.567 45.004 617.641 43.95C618.723 42.896 619.263 41.584 619.263 40.013C619.263 38.484 618.723 37.199 617.641 36.159C616.567 35.112 615.244 34.588 613.673 34.588ZM640.26 32.832H642.223V47.267H640.446L630.795 36.159V47.267H628.853V32.832H630.526L640.26 44.033V32.832ZM653.765 41.212L652.195 40.261C651.21 39.662 650.507 39.073 650.087 38.494C649.673 37.909 649.467 37.237 649.467 36.479C649.467 35.343 649.859 34.42 650.645 33.71C651.437 33.001 652.463 32.646 653.724 32.646C654.929 32.646 656.035 32.983 657.041 33.659V36.004C656 35.005 654.881 34.506 653.683 34.506C653.007 34.506 652.453 34.664 652.019 34.981C651.585 35.291 651.368 35.691 651.368 36.18C651.368 36.614 651.526 37.02 651.843 37.399C652.16 37.778 652.673 38.174 653.383 38.587L654.964 39.517C656.727 40.564 657.609 41.901 657.609 43.526C657.609 44.684 657.22 45.624 656.441 46.347C655.67 47.07 654.664 47.432 653.424 47.432C651.998 47.432 650.7 46.995 649.529 46.12V43.495C650.645 44.907 651.936 45.613 653.404 45.613C654.051 45.613 654.588 45.434 655.015 45.076C655.449 44.711 655.666 44.256 655.666 43.712C655.666 42.831 655.033 41.997 653.765 41.212Z" fill="#83B5E0"/>
<path d="M42.297 56.899C44.397 56.405 45.697 54.311 45.202 52.221C44.706 50.131 42.6019 48.837 40.5029 49.33C38.4029 49.823 37.1029 51.917 37.5979 54.007C38.0939 56.098 40.198 57.392 42.297 56.899Z" fill="#83B5E0"/>
<path d="M89.596 9.46195C91.696 8.96895 92.996 6.87397 92.5 4.78397C92.005 2.69397 89.901 1.39998 87.802 1.89298C85.702 2.38598 84.402 4.48096 84.897 6.57096C85.393 8.66096 87.497 9.95495 89.596 9.46195Z" fill="#83B5E0"/>
<path d="M55.319 29.503C55.319 18.493 64.318 9.534 75.378 9.534V2C65.197 2 56.297 7.51097 51.5 15.694C46.709 7.51097 37.803 2 27.627 2C12.393 2 0 14.338 0 29.497C0 44.657 12.393 57 27.627 57V49.467C16.567 49.467 7.56799 40.508 7.56799 29.497C7.56799 18.487 16.567 9.534 27.627 9.534C37.395 9.534 45.551 16.522 47.32 25.73H27.627V33.264H55.68C55.447 32.047 55.319 30.789 55.319 29.503Z" fill="#83B5E0"/>
<path d="M75.378 25.736V33.264H76.333L95.071 33.27C93.302 42.478 85.146 49.467 75.378 49.467C67.316 49.467 60.354 44.703 57.17 37.859H49.072C52.635 48.945 63.078 57 75.384 57C89.326 57 100.898 46.656 102.744 33.27C102.918 32.041 103.006 30.784 103.006 29.503V25.736H75.384H75.378Z" fill="#83B5E0"/>
</svg>
