<svg width="150" height="35" viewBox="0 0 150 35" fill="none" xmlns="http://www.w3.org/2000/svg">
<path d="M10.8321 0V2.56765H3.23882V7.03364H10.5082V9.60129H3.23882V14.4324H11V17H0V0H10.8321Z" fill="white"/>
<path d="M10.8321 0V2.56765H3.23882V7.03364H10.5082V9.60129H3.23882V14.4324H11V17H0V0H10.8321Z" stroke="white"/>
<path d="M24.4177 0V14.4324H33V17H21V0H24.4177Z" fill="white"/>
<path d="M24.4177 0V14.4324H33V17H21V0H24.4177Z" stroke="white"/>
<path d="M53.8321 0V2.56765H46.2388V7.03364H53.5082V9.60129H46.2388V14.4324H54V17H43V0H53.8321Z" fill="white"/>
<path d="M53.8321 0V2.56765H46.2388V7.03364H53.5082V9.60129H46.2388V14.4324H54V17H43V0H53.8321Z" stroke="white"/>
<path d="M73.4989 0C75.5696 0 77.6243 0.454757 79.6629 1.36427V4.29449C77.6243 3.27425 75.6178 2.76413 73.6433 2.76413C72.4153 2.76413 71.3238 3.00535 70.3687 3.48779C69.4136 3.97023 68.6712 4.6662 68.1415 5.57572C67.6198 6.47732 67.3589 7.48569 67.3589 8.60084C67.3589 10.2933 67.9288 11.6576 69.0685 12.6936C70.2162 13.7218 71.7251 14.2359 73.5952 14.2359C74.1089 14.2359 74.5984 14.1924 75.064 14.1054C75.5375 14.0184 76.0993 13.8523 76.7494 13.6071V10.8548H73.9684V8.35171H80V15.1849C79.1733 15.7544 78.1781 16.2012 77.0143 16.5255C75.8585 16.8418 74.6546 17 73.4026 17C71.6288 17 70.0196 16.6401 68.5749 15.9204C67.1382 15.2007 66.0145 14.1924 65.2039 12.8953C64.4013 11.5983 64 10.151 64 8.55338C64 6.93208 64.4053 5.46499 65.216 4.15213C66.0346 2.83926 67.1703 1.81903 68.623 1.09142C70.0838 0.363806 71.7091 0 73.4989 0Z" fill="white"/>
<path d="M73.4989 0C75.5696 0 77.6243 0.454757 79.6629 1.36427V4.29449C77.6243 3.27425 75.6178 2.76413 73.6433 2.76413C72.4153 2.76413 71.3238 3.00535 70.3687 3.48779C69.4136 3.97023 68.6712 4.6662 68.1415 5.57572C67.6198 6.47732 67.3589 7.48569 67.3589 8.60084C67.3589 10.2933 67.9288 11.6576 69.0685 12.6936C70.2162 13.7218 71.7251 14.2359 73.5952 14.2359C74.1089 14.2359 74.5984 14.1924 75.064 14.1054C75.5375 14.0184 76.0993 13.8523 76.7494 13.6071V10.8548H73.9684V8.35171H80V15.1849C79.1733 15.7544 78.1781 16.2012 77.0143 16.5255C75.8585 16.8418 74.6546 17 73.4026 17C71.6288 17 70.0196 16.6401 68.5749 15.9204C67.1382 15.2007 66.0145 14.1924 65.2039 12.8953C64.4013 11.5983 64 10.151 64 8.55338C64 6.93208 64.4053 5.46499 65.216 4.15213C66.0346 2.83926 67.1703 1.81903 68.623 1.09142C70.0838 0.363806 71.7091 0 73.4989 0Z" stroke="white"/>
<path d="M98.4398 0L106 17H102.508L100.731 12.8626H93.1219L91.4677 17H88L95.0579 0H98.4398ZM94.1266 10.3679H99.6528L96.7611 3.63851L94.1266 10.3679Z" fill="white"/>
<path d="M98.4398 0L106 17H102.508L100.731 12.8626H93.1219L91.4677 17H88L95.0579 0H98.4398ZM94.1266 10.3679H99.6528L96.7611 3.63851L94.1266 10.3679Z" stroke="white"/>
<path d="M114.849 0L124.826 11.8647V0H128V17H125.211L115.174 4.94059V17H112V0H114.849Z" fill="white"/>
<path d="M114.849 0L124.826 11.8647V0H128V17H125.211L115.174 4.94059V17H112V0H114.849Z" stroke="white"/>
<path d="M150 0V2.56765H144.105V17H140.895V2.56765H135V0H150Z" fill="white"/>
<path d="M150 0V2.56765H144.105V17H140.895V2.56765H135V0H150Z" stroke="white"/>
<path d="M6.05494 30.5723H9V34.2956C7.91994 34.7652 6.84825 35 5.78493 35C4.33229 35 3.17059 34.5765 2.29984 33.7296C1.43328 32.8784 1 31.8302 1 30.5849C1 29.2725 1.45003 28.1803 2.35008 27.3082C3.25013 26.4361 4.37834 26 5.73469 26C6.22868 26 6.69754 26.0545 7.14129 26.1635C7.58503 26.2683 8.146 26.4633 8.82418 26.7484V28.0314C7.7776 27.4235 6.7394 27.1195 5.70958 27.1195C4.75092 27.1195 3.94296 27.4465 3.28571 28.1006C2.62847 28.7547 2.29984 29.5577 2.29984 30.5094C2.29984 31.5073 2.62847 32.3229 3.28571 32.956C3.94296 33.5891 4.78859 33.9057 5.82261 33.9057C6.32496 33.9057 6.92569 33.7904 7.6248 33.5597L7.74411 33.522V31.6918H6.05494V30.5723Z" fill="white"/>
<path d="M6.05494 30.5723H9V34.2956C7.91994 34.7652 6.84825 35 5.78493 35C4.33229 35 3.17059 34.5765 2.29984 33.7296C1.43328 32.8784 1 31.8302 1 30.5849C1 29.2725 1.45003 28.1803 2.35008 27.3082C3.25013 26.4361 4.37834 26 5.73469 26C6.22868 26 6.69754 26.0545 7.14129 26.1635C7.58503 26.2683 8.146 26.4633 8.82418 26.7484V28.0314C7.7776 27.4235 6.7394 27.1195 5.70958 27.1195C4.75092 27.1195 3.94296 27.4465 3.28571 28.1006C2.62847 28.7547 2.29984 29.5577 2.29984 30.5094C2.29984 31.5073 2.62847 32.3229 3.28571 32.956C3.94296 33.5891 4.78859 33.9057 5.82261 33.9057C6.32496 33.9057 6.92569 33.7904 7.6248 33.5597L7.74411 33.522V31.6918H6.05494V30.5723Z" stroke="white"/>
<path d="M23 30C23 30.5523 22.3284 31 21.5 31C20.6716 31 20 30.5523 20 30C20 29.4477 20.6716 29 21.5 29C22.3284 29 23 29.4477 23 30Z" fill="white"/>
<path d="M23 30C23 30.5523 22.3284 31 21.5 31C20.6716 31 20 30.5523 20 30C20 29.4477 20.6716 29 21.5 29C22.3284 29 23 29.4477 23 30Z" stroke="white"/>
<path d="M35 35V26H37.2748C38.1934 26 38.9214 26.2255 39.4587 26.6764C40.0003 27.1274 40.2711 27.7373 40.2711 28.5061C40.2711 29.0301 40.139 29.4832 39.8747 29.8654C39.6103 30.2477 39.2312 30.5333 38.7372 30.7223C39.0275 30.9112 39.3114 31.1689 39.5887 31.4953C39.866 31.8218 40.256 32.3908 40.7586 33.2026C41.0749 33.7137 41.3284 34.0981 41.519 34.3558L42 35H40.4531L40.0566 34.4073C40.0436 34.3858 40.0176 34.3493 39.9786 34.2978L39.7252 33.9434L39.3222 33.2863L38.8867 32.5841C38.6181 32.2147 38.3711 31.9205 38.1458 31.7015C37.9248 31.4825 37.7233 31.3257 37.5413 31.2312C37.3637 31.1324 37.0625 31.083 36.6379 31.083H36.2999V35H35ZM36.6899 27.0952H36.2999V29.9363H36.7939C37.4525 29.9363 37.9031 29.8805 38.1458 29.7688C38.3928 29.6571 38.5834 29.4896 38.7177 29.2663C38.8564 29.0387 38.9257 28.781 38.9257 28.4932C38.9257 28.2097 38.8499 27.9542 38.6982 27.7266C38.5466 27.4946 38.3321 27.3314 38.0548 27.2369C37.7818 27.1424 37.3268 27.0952 36.6899 27.0952Z" fill="white"/>
<path d="M35 35V26H37.2748C38.1934 26 38.9214 26.2255 39.4587 26.6764C40.0003 27.1274 40.2711 27.7373 40.2711 28.5061C40.2711 29.0301 40.139 29.4832 39.8747 29.8654C39.6103 30.2477 39.2312 30.5333 38.7372 30.7223C39.0275 30.9112 39.3114 31.1689 39.5887 31.4953C39.866 31.8218 40.256 32.3908 40.7586 33.2026C41.0749 33.7137 41.3284 34.0981 41.519 34.3558L42 35H40.4531L40.0566 34.4073C40.0436 34.3858 40.0176 34.3493 39.9786 34.2978L39.7252 33.9434L39.3222 33.2863L38.8867 32.5841C38.6181 32.2147 38.3711 31.9205 38.1458 31.7015C37.9248 31.4825 37.7233 31.3257 37.5413 31.2312C37.3637 31.1324 37.0625 31.083 36.6379 31.083H36.2999V35H35ZM36.6899 27.0952H36.2999V29.9363H36.7939C37.4525 29.9363 37.9031 29.8805 38.1458 29.7688C38.3928 29.6571 38.5834 29.4896 38.7177 29.2663C38.8564 29.0387 38.9257 28.781 38.9257 28.4932C38.9257 28.2097 38.8499 27.9542 38.6982 27.7266C38.5466 27.4946 38.3321 27.3314 38.0548 27.2369C37.7818 27.1424 37.3268 27.0952 36.6899 27.0952Z" stroke="white"/>
<path d="M57 30C57 30.5523 56.3284 31 55.5 31C54.6716 31 54 30.5523 54 30C54 29.4477 54.6716 29 55.5 29C56.3284 29 57 29.4477 57 30Z" fill="white"/>
<path d="M57 30C57 30.5523 56.3284 31 55.5 31C54.6716 31 54 30.5523 54 30C54 29.4477 54.6716 29 55.5 29C56.3284 29 57 29.4477 57 30Z" stroke="white"/>
<path d="M72.9767 26C74.4138 26 75.6092 26.4292 76.5629 27.2875C77.521 28.1458 78 29.2219 78 30.5157C78 31.8095 77.5165 32.8814 76.5496 33.7313C75.587 34.5771 74.3717 35 72.9035 35C71.5019 35 70.3331 34.5771 69.3972 33.7313C68.4657 32.8814 68 31.8179 68 30.5408C68 29.2303 68.4702 28.1458 69.4105 27.2875C70.3509 26.4292 71.5396 26 72.9767 26ZM73.0299 27.1933C71.9654 27.1933 71.0894 27.5073 70.4019 28.1354C69.7188 28.7634 69.3772 29.5652 69.3772 30.5408C69.3772 31.4871 69.721 32.2743 70.4085 32.9023C71.096 33.5304 71.9565 33.8444 72.99 33.8444C74.0279 33.8444 74.8929 33.5241 75.5848 32.8835C76.2812 32.2428 76.6294 31.4452 76.6294 30.4906C76.6294 29.5611 76.2812 28.7802 75.5848 28.1479C74.8929 27.5115 74.0413 27.1933 73.0299 27.1933Z" fill="white"/>
<path d="M72.9767 26C74.4138 26 75.6092 26.4292 76.5629 27.2875C77.521 28.1458 78 29.2219 78 30.5157C78 31.8095 77.5165 32.8814 76.5496 33.7313C75.587 34.5771 74.3717 35 72.9035 35C71.5019 35 70.3331 34.5771 69.3972 33.7313C68.4657 32.8814 68 31.8179 68 30.5408C68 29.2303 68.4702 28.1458 69.4105 27.2875C70.3509 26.4292 71.5396 26 72.9767 26ZM73.0299 27.1933C71.9654 27.1933 71.0894 27.5073 70.4019 28.1354C69.7188 28.7634 69.3772 29.5652 69.3772 30.5408C69.3772 31.4871 69.721 32.2743 70.4085 32.9023C71.096 33.5304 71.9565 33.8444 72.99 33.8444C74.0279 33.8444 74.8929 33.5241 75.5848 32.8835C76.2812 32.2428 76.6294 31.4452 76.6294 30.4906C76.6294 29.5611 76.2812 28.7802 75.5848 28.1479C74.8929 27.5115 74.0413 27.1933 73.0299 27.1933Z" stroke="white"/>
<path d="M93 30C93 30.5523 92.3284 31 91.5 31C90.6716 31 90 30.5523 90 30C90 29.4477 90.6716 29 91.5 29C92.3284 29 93 29.4477 93 30Z" fill="white"/>
<path d="M93 30C93 30.5523 92.3284 31 91.5 31C90.6716 31 90 30.5523 90 30C90 29.4477 90.6716 29 91.5 29C92.3284 29 93 29.4477 93 30Z" stroke="white"/>
<path d="M111.662 26H113V31.051C113 31.7346 112.947 32.2505 112.84 32.5987C112.738 32.9469 112.61 33.2378 112.454 33.4713C112.303 33.7006 112.117 33.9066 111.895 34.0892C111.159 34.6964 110.196 35 109.007 35C107.795 35 106.824 34.6985 106.092 34.0955C105.87 33.9087 105.681 33.7006 105.526 33.4713C105.375 33.2378 105.248 32.9533 105.146 32.6178C105.049 32.2824 105 31.7558 105 31.0382V26H106.338V31.051C106.338 31.8875 106.438 32.4692 106.637 32.7962C106.837 33.1231 107.141 33.3864 107.549 33.586C107.957 33.7813 108.439 33.879 108.993 33.879C109.783 33.879 110.427 33.6815 110.923 33.2866C111.185 33.0743 111.374 32.8238 111.489 32.535C111.605 32.2463 111.662 31.7516 111.662 31.051V26Z" fill="white"/>
<path d="M111.662 26H113V31.051C113 31.7346 112.947 32.2505 112.84 32.5987C112.738 32.9469 112.61 33.2378 112.454 33.4713C112.303 33.7006 112.117 33.9066 111.895 34.0892C111.159 34.6964 110.196 35 109.007 35C107.795 35 106.824 34.6985 106.092 34.0955C105.87 33.9087 105.681 33.7006 105.526 33.4713C105.375 33.2378 105.248 32.9533 105.146 32.6178C105.049 32.2824 105 31.7558 105 31.0382V26H106.338V31.051C106.338 31.8875 106.438 32.4692 106.637 32.7962C106.837 33.1231 107.141 33.3864 107.549 33.586C107.957 33.7813 108.439 33.879 108.993 33.879C109.783 33.879 110.427 33.6815 110.923 33.2866C111.185 33.0743 111.374 32.8238 111.489 32.535C111.605 32.2463 111.662 31.7516 111.662 31.051V26Z" stroke="white"/>
<path d="M129 30C129 30.5523 128.328 31 127.5 31C126.672 31 126 30.5523 126 30C126 29.4477 126.672 29 127.5 29C128.328 29 129 29.4477 129 30Z" fill="white"/>
<path d="M129 30C129 30.5523 128.328 31 127.5 31C126.672 31 126 30.5523 126 30C126 29.4477 126.672 29 127.5 29C128.328 29 129 29.4477 129 30Z" stroke="white"/>
<path d="M141 35V26H144.017C144.925 26 145.649 26.2316 146.19 26.6948C146.73 27.158 147 27.7798 147 28.5604C147 29.0836 146.862 29.5468 146.585 29.95C146.308 30.3531 145.928 30.6469 145.447 30.8313C144.966 31.0114 144.276 31.1015 143.377 31.1015H142.369V35H141ZM143.779 27.1451H142.369V29.9564H143.86C144.414 29.9564 144.841 29.8342 145.141 29.5897C145.44 29.341 145.59 28.9871 145.59 28.5282C145.59 27.6061 144.986 27.1451 143.779 27.1451Z" fill="white"/>
<path d="M141 35V26H144.017C144.925 26 145.649 26.2316 146.19 26.6948C146.73 27.158 147 27.7798 147 28.5604C147 29.0836 146.862 29.5468 146.585 29.95C146.308 30.3531 145.928 30.6469 145.447 30.8313C144.966 31.0114 144.276 31.1015 143.377 31.1015H142.369V35H141ZM143.779 27.1451H142.369V29.9564H143.86C144.414 29.9564 144.841 29.8342 145.141 29.5897C145.44 29.341 145.59 28.9871 145.59 28.5282C145.59 27.6061 144.986 27.1451 143.779 27.1451Z" stroke="white"/>
</svg>
